<svg xmlns="http://www.w3.org/2000/svg" xmlns:xlink="http://www.w3.org/1999/xlink" viewBox="-6763 960 255 219"><defs><style>.a{fill:none;}.b{fill:#fff;}.c{fill:#3a3b3c;font-size:13px;font-family:SegoeUI-Semibold, Segoe UI;font-weight:600;letter-spacing:0.03em;}.d{fill:#e3e3e4;}.e{fill:#c7c7c8;}.f{fill:#b8b9ba;}.g{clip-path:url(#a);}</style><clipPath id="a"><rect class="a" width="182.7" height="44"/></clipPath></defs><rect class="b" width="255" height="219" transform="translate(-6763 960)"/><text class="c" transform="translate(-6749 985)"><tspan x="0" y="0">No Sidebar</tspan></text><rect class="d" width="205" height="81" transform="translate(-6738 1000)"/><g transform="translate(-1745 1779)"><rect class="e" width="22.602" height="2" rx="1" transform="translate(-4983 -690)"/><rect class="e" width="22.602" height="2" rx="1" transform="translate(-4948.862 -690)"/></g><g transform="translate(-1745 1777)"><rect class="f" width="158.921" height="4" rx="2" transform="translate(-4983 -678)"/><rect class="f" width="136.554" height="4" rx="2" transform="translate(-4983 -669)"/></g><g class="g" transform="translate(-6728 1120)"><g transform="translate(4983 655)"><rect class="e" width="182.7" height="2" rx="1" transform="translate(-4983 -655)"/><rect class="e" width="154.86" height="2" rx="1" transform="translate(-4983 -648)"/><rect class="e" width="172.26" height="2" rx="1" transform="translate(-4983 -641)"/><rect class="e" width="114.84" height="2" rx="1" transform="translate(-4983 -634)"/></g><g transform="translate(4983 683)"><rect class="e" width="182.7" height="2" rx="1" transform="translate(-4983 -655)"/><rect class="e" width="154.86" height="2" rx="1" transform="translate(-4983 -648)"/><rect class="e" width="172.26" height="2" rx="1" transform="translate(-4983 -641)"/><rect class="e" width="114.84" height="2" rx="1" transform="translate(-4983 -634)"/></g></g></svg>