<svg xmlns="http://www.w3.org/2000/svg" viewBox="1092 365 255 219"><defs><style>.a,.e{fill:#fff;}.b{fill:#3a3b3c;font-size:13px;font-family:SegoeUI-Semibold, Segoe UI;font-weight:600;letter-spacing:0.03em;}.c{fill:#b8b9ba;}.d{fill:#c7c7c8;}.e{stroke:#95989a;}.f{fill:#e3e3e4;}.g{fill:none;}.h{stroke:none;}</style></defs><g transform="translate(-73 -38)"><g transform="translate(7663 -557)"><rect class="a" width="255" height="219" transform="translate(-6498 960)"/><text class="b" transform="translate(-6484 983.876)"><tspan x="0" y="0">Right Sidebar</tspan></text><g transform="translate(691 -2)"><rect class="c" width="48" height="3" rx="1.5" transform="translate(-7014 1097)"/><rect class="d" width="60" height="2" rx="1" transform="translate(-7009 1108)"/><rect class="d" width="32" height="2" rx="1" transform="translate(-7009 1113)"/><g class="e" transform="translate(-7014 1108)"><circle class="h" cx="1" cy="1" r="1"/><circle class="g" cx="1" cy="1" r="0.5"/></g><rect class="d" width="60" height="2" rx="1" transform="translate(-7009 1123)"/><rect class="d" width="32" height="2" rx="1" transform="translate(-7009 1128)"/><g class="e" transform="translate(-7014 1123)"><circle class="h" cx="1" cy="1" r="1"/><circle class="g" cx="1" cy="1" r="0.5"/></g><rect class="d" width="60" height="2" rx="1" transform="translate(-7009 1138)"/><rect class="d" width="32" height="2" rx="1" transform="translate(-7009 1143)"/><g class="e" transform="translate(-7014 1138)"><circle class="h" cx="1" cy="1" r="1"/><circle class="g" cx="1" cy="1" r="0.5"/></g></g><rect class="f" width="132" height="74" transform="translate(-6483 1000)"/><g transform="translate(691)"><rect class="f" width="29" height="22" transform="translate(-7014 1000)"/><rect class="c" width="25" height="2" rx="1" transform="translate(-6981 1003)"/><path class="d" d="M.5,0h31a.5.5,0,0,1,0,1H.5a.5.5,0,1,1,0-1Z" transform="translate(-6981 1009)"/><path class="d" d="M.5,0h31a.5.5,0,0,1,0,1H.5a.5.5,0,1,1,0-1Z" transform="translate(-6981 1012)"/><path class="d" d="M.5,0h31a.5.5,0,0,1,0,1H.5a.5.5,0,1,1,0-1Z" transform="translate(-6981 1015)"/><path class="d" d="M.316,0H19.884c.174,0,.316.224.316.5s-.141.5-.316.5H.316C.141,1,0,.776,0,.5S.141,0,.316,0Z" transform="translate(-6981 1018)"/><rect class="f" width="29" height="22" transform="translate(-7014 1030)"/><rect class="c" width="25" height="2" rx="1" transform="translate(-6981 1033)"/><path class="d" d="M.5,0h31a.5.5,0,0,1,0,1H.5a.5.5,0,1,1,0-1Z" transform="translate(-6981 1039)"/><path class="d" d="M.5,0h31a.5.5,0,0,1,0,1H.5a.5.5,0,1,1,0-1Z" transform="translate(-6981 1042)"/><path class="d" d="M.5,0h31a.5.5,0,0,1,0,1H.5a.5.5,0,1,1,0-1Z" transform="translate(-6981 1045)"/><path class="d" d="M.316,0H19.884c.174,0,.316.224.316.5s-.141.5-.316.5H.316C.141,1,0,.776,0,.5S.141,0,.316,0Z" transform="translate(-6981 1048)"/><rect class="f" width="29" height="22" transform="translate(-7014 1060)"/><rect class="c" width="25" height="2" rx="1" transform="translate(-6981 1063)"/><path class="d" d="M.5,0h31a.5.5,0,0,1,0,1H.5a.5.5,0,1,1,0-1Z" transform="translate(-6981 1069)"/><path class="d" d="M.5,0h31a.5.5,0,0,1,0,1H.5a.5.5,0,1,1,0-1Z" transform="translate(-6981 1072)"/><path class="d" d="M.5,0h31a.5.5,0,0,1,0,1H.5a.5.5,0,1,1,0-1Z" transform="translate(-6981 1075)"/><path class="d" d="M.316,0H19.884c.174,0,.316.224.316.5s-.141.5-.316.5H.316C.141,1,0,.776,0,.5S.141,0,.316,0Z" transform="translate(-6981 1078)"/></g><g transform="translate(437)"><rect class="d" width="24" height="2" rx="1" transform="translate(-6920 1082)"/><rect class="d" width="24" height="2" rx="1" transform="translate(-6885.862 1082)"/><rect class="c" width="114.559" height="4" rx="2" transform="translate(-6920 1092)"/><rect class="c" width="98.436" height="4" rx="2" transform="translate(-6920 1101)"/><rect class="d" width="111.631" height="2" rx="1" transform="translate(-6920 1120)"/><rect class="d" width="124.174" height="2" rx="1" transform="translate(-6920 1127)"/><rect class="d" width="82.783" height="2" rx="1" transform="translate(-6920 1134)"/><rect class="d" width="131.7" height="2" rx="1" transform="translate(-6920 1141)"/><rect class="d" width="111.631" height="2" rx="1" transform="translate(-6920 1148)"/><rect class="d" width="124.174" height="2" rx="1" transform="translate(-6920 1155)"/><rect class="d" width="82.783" height="2" rx="1" transform="translate(-6920 1162)"/><rect class="g" width="131.7" height="38" transform="translate(-6920 1113)"/></g><rect class="g" width="131.7" height="37.57" transform="translate(-6390 1111.269)"/><rect class="g" width="65" height="67.231" transform="translate(-6484 1111.269)"/></g></g></svg>