<svg xmlns="http://www.w3.org/2000/svg" viewBox="411 378 255 217"><defs><style>.a{fill:#fff;}.b{fill:#3a3b3c;font-size:13px;font-family:SegoeUI-Semibold, Segoe UI;font-weight:600;letter-spacing:0.03em;}.c{fill:#e3e3e4;}.d{fill:#b8b9ba;}.e{fill:#c7c7c8;}</style></defs><g transform="translate(-231 -62)"><rect class="a" width="255" height="217" transform="translate(642 440)"/><text class="b" transform="translate(656 465)"><tspan x="0" y="0">Masonry</tspan></text><rect class="c" width="48" height="37" transform="translate(657 480)"/><rect class="c" width="48" height="57" transform="translate(657 557)"/><rect class="c" width="48" height="46" transform="translate(716 481)"/><rect class="c" width="48" height="47" transform="translate(716 567)"/><rect class="c" width="48" height="27" transform="translate(775 480)"/><rect class="c" width="48" height="57" transform="translate(775 547)"/><rect class="c" width="48" height="57" transform="translate(834 480)"/><rect class="c" width="48" height="27" transform="translate(834 577)"/><rect class="d" width="47.5" height="3" rx="1.5" transform="translate(657 523)"/><rect class="d" width="47.5" height="3" rx="1.5" transform="translate(716 533)"/><rect class="d" width="47.5" height="3" rx="1.5" transform="translate(775 513)"/><rect class="d" width="47.5" height="3" rx="1.5" transform="translate(834 543)"/><rect class="d" width="47.5" height="3" rx="1.5" transform="translate(834 610)"/><rect class="d" width="47.5" height="3" rx="1.5" transform="translate(775 610)"/><rect class="d" width="47.5" height="3" rx="1.5" transform="translate(716 620)"/><rect class="d" width="47.5" height="3" rx="1.5" transform="translate(657 620)"/><rect class="d" width="28.5" height="3" rx="1.5" transform="translate(657 530)"/><rect class="d" width="28.5" height="3" rx="1.5" transform="translate(716 540)"/><rect class="d" width="28.5" height="3" rx="1.5" transform="translate(775 520)"/><rect class="d" width="28.5" height="3" rx="1.5" transform="translate(834 550)"/><rect class="d" width="28.5" height="3" rx="1.5" transform="translate(834 617)"/><rect class="d" width="28.5" height="3" rx="1.5" transform="translate(775 617)"/><rect class="d" width="28.5" height="3" rx="1.5" transform="translate(716 627)"/><rect class="d" width="28.5" height="3" rx="1.5" transform="translate(657 627)"/><rect class="e" width="19" height="2" rx="1" transform="translate(657 543)"/><rect class="e" width="19" height="2" rx="1" transform="translate(716 553)"/><rect class="e" width="19" height="2" rx="1" transform="translate(775 533)"/><rect class="e" width="19" height="2" rx="1" transform="translate(834 563)"/><rect class="e" width="19" height="2" rx="1" transform="translate(834 630)"/><rect class="e" width="19" height="2" rx="1" transform="translate(775 630)"/><rect class="e" width="19" height="2" rx="1" transform="translate(716 640)"/><rect class="e" width="19" height="2" rx="1" transform="translate(657 640)"/></g></svg>