<svg xmlns="http://www.w3.org/2000/svg" xmlns:xlink="http://www.w3.org/1999/xlink" viewBox="-6328 -441 255 192"><defs><style>.a{fill:none;}.b,.f{fill:#fff;}.c{fill:#e3e3e4;}.d{fill:#b8b9ba;}.e{fill:#c7c7c8;}.f{stroke:#95989a;}.g{clip-path:url(#a);}.h{stroke:none;}</style><clipPath id="a"><rect class="a" width="58" height="2"/></clipPath></defs><g transform="translate(-638 -13)"><rect class="b" width="255" height="192" transform="translate(-5690 -428)"/><rect class="a" width="131.7" height="37.57" transform="translate(-5582 -300.731)"/><g transform="translate(-205 423)"><g transform="translate(-5310 -835.453)"><rect class="c" width="29" height="21.751" transform="translate(0 0)"/><rect class="d" width="25" height="1.977" rx="0.989" transform="translate(33 2.966)"/><g transform="translate(33 8.898)"><path class="e" d="M.5,0h31a.5.5,0,0,1,.5.494.5.5,0,0,1-.5.494H.5A.5.5,0,0,1,0,.494.5.5,0,0,1,.5,0Z"/><path class="e" d="M.5,0h31a.5.5,0,0,1,.5.494.5.5,0,0,1-.5.494H.5A.5.5,0,0,1,0,.494.5.5,0,0,1,.5,0Z" transform="translate(0 2.966)"/><path class="e" d="M.5,0h31a.5.5,0,0,1,.5.494.5.5,0,0,1-.5.494H.5A.5.5,0,0,1,0,.494.5.5,0,0,1,.5,0Z" transform="translate(0 5.932)"/><path class="e" d="M.316,0H19.884c.174,0,.316.221.316.494s-.141.494-.316.494H.316C.141.989,0,.767,0,.494S.141,0,.316,0Z" transform="translate(0 8.898)"/></g></g><g transform="translate(-5310 -805.792)"><rect class="c" width="29" height="21.751" transform="translate(0 0)"/><rect class="d" width="25" height="1.977" rx="0.989" transform="translate(33 2.966)"/><g transform="translate(33 8.898)"><path class="e" d="M.5,0h31a.5.5,0,0,1,.5.494.5.5,0,0,1-.5.494H.5A.5.5,0,0,1,0,.494.5.5,0,0,1,.5,0Z"/><path class="e" d="M.5,0h31a.5.5,0,0,1,.5.494.5.5,0,0,1-.5.494H.5A.5.5,0,0,1,0,.494.5.5,0,0,1,.5,0Z" transform="translate(0 2.966)"/><path class="e" d="M.5,0h31a.5.5,0,0,1,.5.494.5.5,0,0,1-.5.494H.5A.5.5,0,0,1,0,.494.5.5,0,0,1,.5,0Z" transform="translate(0 5.932)"/><path class="e" d="M.316,0H19.884c.174,0,.316.221.316.494s-.141.494-.316.494H.316C.141.989,0,.767,0,.494S.141,0,.316,0Z" transform="translate(0 8.898)"/></g></g><g transform="translate(-5310 -776.131)"><rect class="c" width="29" height="21.751" transform="translate(0 0)"/><rect class="d" width="25" height="1.977" rx="0.989" transform="translate(33 2.966)"/><g transform="translate(33 8.898)"><path class="e" d="M.5,0h31a.5.5,0,0,1,.5.494.5.5,0,0,1-.5.494H.5A.5.5,0,0,1,0,.494.5.5,0,0,1,.5,0Z"/><path class="e" d="M.5,0h31a.5.5,0,0,1,.5.494.5.5,0,0,1-.5.494H.5A.5.5,0,0,1,0,.494.5.5,0,0,1,.5,0Z" transform="translate(0 2.966)"/><path class="e" d="M.5,0h31a.5.5,0,0,1,.5.494.5.5,0,0,1-.5.494H.5A.5.5,0,0,1,0,.494.5.5,0,0,1,.5,0Z" transform="translate(0 5.932)"/><path class="e" d="M.316,0H19.884c.174,0,.316.221.316.494s-.141.494-.316.494H.316C.141.989,0,.767,0,.494S.141,0,.316,0Z" transform="translate(0 8.898)"/></g></g><g transform="translate(-5310 -739.55)"><rect class="d" width="48" height="2.966" rx="1.483"/><g transform="translate(0 10.876)"><rect class="e" width="60" height="1.977" rx="0.989" transform="translate(5 0)"/><rect class="e" width="32" height="1.977" rx="0.989" transform="translate(5 4.943)"/><g class="f" transform="translate(0 0)"><ellipse class="h" cx="1" cy="0.989" rx="1" ry="0.989"/><ellipse class="a" cx="1" cy="0.989" rx="0.5" ry="0.489"/></g></g><g transform="translate(0 25.706)"><rect class="e" width="60" height="1.977" rx="0.989" transform="translate(5 0)"/><rect class="e" width="32" height="1.977" rx="0.989" transform="translate(5 4.943)"/><g class="f" transform="translate(0 0)"><ellipse class="h" cx="1" cy="0.989" rx="1" ry="0.989"/><ellipse class="a" cx="1" cy="0.989" rx="0.5" ry="0.489"/></g></g><g transform="translate(0 40.536)"><rect class="e" width="60" height="1.977" rx="0.989" transform="translate(5)"/><rect class="e" width="32" height="1.977" rx="0.989" transform="translate(5 4.943)"/><g class="f"><ellipse class="h" cx="1" cy="0.989" rx="1" ry="0.989"/><ellipse class="a" cx="1" cy="0.989" rx="0.5" ry="0.489"/></g></g></g></g><rect class="c" width="132" height="72" transform="translate(-5675 -413)"/><g class="g" transform="translate(-5675 -312)"><g transform="translate(5675 334)"><rect class="e" width="24" height="2" rx="1" transform="translate(-5675 -334)"/></g><g transform="translate(5709 334)"><rect class="e" width="24" height="2" rx="1" transform="translate(-5675 -334)"/></g></g><rect class="e" width="24" height="2" rx="1" transform="translate(-5675 -253)"/><rect class="d" width="114" height="4" rx="2" transform="translate(-5675 -333)"/><g transform="translate(0 9)"><rect class="d" width="55.4" height="4" rx="2" transform="translate(-5675 -333)"/></g><rect class="e" width="132" height="2" rx="1" transform="translate(-5675 -302)"/><rect class="e" width="124" height="2" rx="1" transform="translate(-5675 -295)"/><rect class="e" width="132" height="2" rx="1" transform="translate(-5675 -288)"/><rect class="e" width="102" height="2" rx="1" transform="translate(-5675 -281)"/><rect class="e" width="118" height="2" rx="1" transform="translate(-5675 -274)"/><rect class="e" width="57" height="2" rx="1" transform="translate(-5675 -267)"/></g></svg>