<?xml version="1.0" standalone="no"?>
<!DOCTYPE svg PUBLIC "-//W3C//DTD SVG 1.1//EN" "http://www.w3.org/Graphics/SVG/1.1/DTD/svg11.dtd" >
<svg xmlns="http://www.w3.org/2000/svg">
<metadata>
<json>
<![CDATA[
{
	"fontFamily": "PreciseThemesIcons",
	"majorVersion": 1,
	"minorVersion": 0,
	"fontURL": "https://precisethemes.com",
	"description": "IconFonts for themes designed by PreciseThemes\nFont generated by IcoMoon.",
	"copyright": "PreciseThemes",
	"designer": "PreciseThemes",
	"designerURL": "https://precisethemes.com",
	"version": "Version 1.0",
	"fontId": "PreciseThemesIcons",
	"psName": "PreciseThemesIcons",
	"subFamily": "Regular",
	"fullName": "PreciseThemesIcons"
}
]]>
</json>
</metadata>
<defs>
<font id="PreciseThemesIcons" horiz-adv-x="1024">
<font-face units-per-em="1024" ascent="960" descent="-64" />
<missing-glyph horiz-adv-x="1024" />
<glyph unicode="&#x20;" horiz-adv-x="0" d="" />
<glyph unicode="&#xe000;" glyph-name="angle-up" data-tags="angle-up" d="M523.328 705.536c6.208-6.208 6.208-16.416 0-22.624l-489.44-489.44c-6.208-6.208-16.416-6.208-22.624 0s-6.208 16.416 0 22.624l489.408 489.44c6.24 6.208 16.416 6.208 22.656 0zM500.672 705.536c6.208 6.208 16.416 6.208 22.624 0l489.44-489.44c6.208-6.208 6.208-16.416 0-22.624s-16.416-6.208-22.624 0l-489.44 489.44c-6.208 6.208-6.208 16.416 0 22.624z" />
<glyph unicode="&#xe001;" glyph-name="angle-right" data-tags="angle-right" d="M768.032 438.176c-6.208-6.208-16.416-6.208-22.624 0l-489.44 489.44c-6.208 6.208-6.208 16.416 0 22.624s16.416 6.208 22.624 0l489.44-489.44c6.208-6.208 6.208-16.384 0-22.624zM768.032 460.832c6.208-6.208 6.208-16.416 0-22.624l-489.44-489.44c-6.208-6.208-16.416-6.208-22.624 0s-6.208 16.416 0 22.624l489.44 489.44c6.208 6.208 16.416 6.208 22.624 0z" />
<glyph unicode="&#xe002;" glyph-name="angle-down" data-tags="angle-down" d="M500.672 193.472c-6.208 6.208-6.208 16.416 0 22.624l489.44 489.44c6.208 6.208 16.416 6.208 22.624 0s6.208-16.416 0-22.624l-489.408-489.44c-6.24-6.208-16.416-6.208-22.656 0zM523.328 193.472c-6.208-6.208-16.416-6.208-22.624 0l-489.44 489.44c-6.208 6.208-6.208 16.416 0 22.624s16.416 6.208 22.624 0l489.44-489.44c6.208-6.208 6.208-16.416 0-22.624z" />
<glyph unicode="&#xe003;" glyph-name="angle-left" data-tags="angle-left" d="M255.968 460.832c6.208 6.208 16.416 6.208 22.624 0l489.44-489.44c6.208-6.208 6.208-16.416 0-22.624s-16.416-6.208-22.624 0l-489.44 489.408c-6.208 6.24-6.208 16.416 0 22.656zM255.968 438.176c-6.208 6.208-6.208 16.416 0 22.624l489.44 489.44c6.208 6.208 16.416 6.208 22.624 0s6.208-16.416 0-22.624l-489.44-489.44c-6.208-6.208-16.416-6.208-22.624 0z" />
<glyph unicode="&#xe004;" glyph-name="arrow-alt-up" data-tags="arrow-alt-up" d="M523.36 953.952c6.208-6.208 6.208-16.448 0-22.624l-184.064-184.096c-6.208-6.208-16.448-6.208-22.624 0-6.208 6.208-6.208 16.416 0 22.624l184.064 184.096c6.208 6.176 16.384 6.176 22.624 0zM500.768 953.952c6.208 6.176 16.416 6.176 22.624 0l184.096-184.096c6.176-6.208 6.176-16.416 0-22.624-6.208-6.208-16.448-6.208-22.624 0l-184.096 184.096c-6.208 6.176-6.208 16.384 0 22.624zM512.032 948.352c8.8 0 16-7.2 16-16l-0.032-976c0-8.8-7.2-16-16-16s-16 7.2-16 16v976c0.032 8.8 7.232 16 16.032 16v0z" />
<glyph unicode="&#xe005;" glyph-name="arrow-alt-right" data-tags="arrow-alt-right" d="M1016.48 438.208c-6.208-6.208-16.448-6.208-22.624 0l-184.096 184.096c-6.208 6.208-6.208 16.416 0 22.624s16.416 6.208 22.624 0l184.096-184.096c6.176-6.208 6.176-16.384 0-22.624zM1016.48 460.8c6.176-6.208 6.176-16.416 0-22.624l-184.096-184.096c-6.208-6.176-16.416-6.176-22.624 0-6.208 6.208-6.208 16.448 0 22.624l184.096 184.096c6.176 6.208 16.384 6.208 22.624 0zM1010.88 449.536c0-8.8-7.2-16-16-16h-976c-8.8 0-16 7.2-16 16v0c0 8.8 7.2 16 16 16h976c8.8 0 16-7.2 16-16v0z" />
<glyph unicode="&#xe006;" glyph-name="arrow-alt-down" data-tags="arrow-alt-down" d="M500.704-54.976c-6.208 6.208-6.208 16.448 0 22.624l184.064 184.096c6.208 6.208 16.448 6.208 22.624 0 6.208-6.208 6.208-16.416 0-22.624l-184.064-184.096c-6.208-6.176-16.384-6.176-22.624 0zM523.296-54.976c-6.208-6.176-16.416-6.176-22.624 0l-184.096 184.096c-6.176 6.208-6.176 16.416 0 22.624 6.208 6.208 16.448 6.208 22.624 0l184.096-184.096c6.208-6.176 6.208-16.384 0-22.624zM512.032-49.376c-8.768 0-16 7.2-16 16v976c0 8.8 7.2 16 16 16s16-7.2 16-16v-976c0-8.8-7.2-16-16-16z" />
<glyph unicode="&#xe007;" glyph-name="arrow-alt-left" data-tags="arrow-alt-left" d="M7.488 460.8c6.208 6.208 16.448 6.208 22.624 0l184.096-184.064c6.208-6.208 6.208-16.448 0-22.624-6.208-6.208-16.416-6.208-22.624 0l-184.096 184.064c-6.176 6.208-6.176 16.384 0 22.624zM7.488 438.208c-6.176 6.208-6.176 16.416 0 22.624l184.096 184.096c6.208 6.176 16.416 6.176 22.624 0 6.208-6.208 6.208-16.448 0-22.624l-184.096-184.096c-6.176-6.208-16.384-6.208-22.624 0zM13.088 449.472c0 8.768 7.2 16 16 16h976c8.8 0 16-7.2 16-16s-7.2-16-16-16h-976c-8.8 0-16 7.2-16 16z" />
<glyph unicode="&#xe008;" glyph-name="arrow-up" data-tags="arrow-up" d="M523.296 766.688c6.208-6.208 6.208-16.416 0-22.624l-184.096-184.096c-6.208-6.208-16.416-6.208-22.624 0s-6.208 16.416 0 22.624l184.096 184.096c6.208 6.208 16.384 6.208 22.624 0zM500.704 766.688c6.208 6.208 16.416 6.208 22.624 0l184.096-184.096c6.208-6.208 6.208-16.416 0-22.624s-16.416-6.208-22.624 0l-184.096 184.096c-6.208 6.208-6.208 16.416 0 22.624zM511.904 760.992c8.8 0 16-7.2 16-16v-608c0-8.8-7.2-16-16-16v0c-8.8 0-16 7.2-16 16v608c0 8.8 7.2 16 16 16v0z" />
<glyph unicode="&#xe009;" glyph-name="arrow-right" data-tags="arrow-right" d="M829.184 438.208c-6.208-6.208-16.416-6.208-22.624 0l-184.096 184.096c-6.208 6.208-6.208 16.416 0 22.624s16.416 6.208 22.624 0l184.096-184.096c6.208-6.208 6.208-16.384 0-22.624zM829.184 460.8c6.208-6.208 6.208-16.416 0-22.624l-184.096-184.096c-6.208-6.208-16.416-6.208-22.624 0s-6.208 16.416 0 22.624l184.096 184.096c6.208 6.208 16.416 6.208 22.624 0zM823.488 449.6c0-8.8-7.2-16-16-16h-608c-8.8 0-16 7.2-16 16v0c0 8.8 7.2 16 16 16h608c8.832 0 16-7.2 16-16v0z" />
<glyph unicode="&#xe00a;" glyph-name="arrow-down" data-tags="arrow-down" d="M500.704 132.32c-6.208 6.208-6.208 16.416 0 22.624l184.096 184.096c6.208 6.208 16.416 6.208 22.624 0s6.208-16.416 0-22.624l-184.096-184.096c-6.208-6.208-16.384-6.208-22.624 0zM523.296 132.32c-6.208-6.208-16.416-6.208-22.624 0l-184.096 184.096c-6.208 6.208-6.208 16.416 0 22.624s16.416 6.208 22.624 0l184.096-184.096c6.208-6.208 6.208-16.416 0-22.624zM512.096 138.016c-8.8 0-16 7.2-16 16v608c0 8.8 7.2 16 16 16v0c8.8 0 16-7.2 16-16v-608c0-8.832-7.2-16-16-16v0z" />
<glyph unicode="&#xe00b;" glyph-name="arrow-left" data-tags="arrow-left" d="M194.816 460.8c6.208 6.208 16.416 6.208 22.624 0l184.096-184.096c6.208-6.208 6.208-16.416 0-22.624s-16.416-6.208-22.624 0l-184.096 184.096c-6.208 6.208-6.208 16.384 0 22.624zM194.816 438.208c-6.208 6.208-6.208 16.416 0 22.624l184.096 184.096c6.208 6.208 16.416 6.208 22.624 0s6.208-16.416 0-22.624l-184.096-184.096c-6.208-6.208-16.416-6.208-22.624 0zM200.512 449.408c0 8.8 7.2 16 16 16h608c8.8 0 16-7.2 16-16v0c0-8.8-7.2-16-16-16h-608c-8.8 0-16 7.2-16 16v0z" />
<glyph unicode="&#xe00c;" glyph-name="more" data-tags="more" d="M192 449.504c0-53.019-42.981-96-96-96s-96 42.981-96 96c0 53.019 42.981 96 96 96s96-42.981 96-96zM1024 449.504c0-53.019-42.981-96-96-96s-96 42.981-96 96c0 53.019 42.981 96 96 96s96-42.981 96-96zM608 449.504c0-53.019-42.981-96-96-96s-96 42.981-96 96c0 53.019 42.981 96 96 96s96-42.981 96-96z" />
<glyph unicode="&#xe00d;" glyph-name="article" data-tags="article" d="M832 929.504c0-17.6-14.4-32-32-32h-768c-17.6 0-32 14.4-32 32v0c0 17.6 14.4 32 32 32h768c17.6 0 32-14.4 32-32v0zM992-62.496c-17.6 0-32 14.4-32 32v768c0 17.6 14.4 32 32 32v0c17.6 0 32-14.4 32-32v-768c0-17.6-14.4-32-32-32v0zM32-62.496c-17.6 0-32 14.4-32 32v960c0 17.6 14.4 32 32 32v0c17.6 0 32-14.4 32-32v-960c0-17.6-14.4-32-32-32v0zM1024-30.496c0-17.6-14.4-32-32-32h-960c-17.6 0-32 14.4-32 32v0c0 17.6 14.4 32 32 32h960c17.6 0 32-14.4 32-32v0zM1010.72 718.72c-12.448-12.448-32.8-12.448-45.248 0l-182.368 182.4c-12.448 12.448-12.448 32.8 0 45.248s32.8 12.448 45.248 0l182.368-182.4c12.448-12.448 12.448-32.8 0-45.248zM640.416 689.504c0-8.8-7.2-16-16-16h-352.416c-8.8 0-16 7.2-16 16v0c0 8.8 7.2 16 16 16h352.416c8.8 0 16-7.2 16-16v0zM768 529.504c0-8.8-7.2-16-16-16h-480c-8.8 0-16 7.2-16 16v0c0 8.8 7.2 16 16 16h480c8.8 0 16-7.2 16-16v0zM768 369.504c0-8.8-7.2-16-16-16h-480c-8.8 0-16 7.2-16 16v0c0 8.8 7.2 16 16 16h480c8.8 0 16-7.2 16-16v0zM768 209.504c0-8.8-7.2-16-16-16h-480c-8.8 0-16 7.2-16 16v0c0 8.8 7.2 16 16 16h480c8.8 0 16-7.2 16-16v0z" />
<glyph unicode="&#xe00e;" glyph-name="image" data-tags="image" d="M376.704 551.093c8.299-8.299 8.299-21.867 0-30.165l-331.179-331.221c-8.299-8.299-21.867-8.299-30.165 0l-0.021 0.043c-8.299 8.299-8.277 21.867 0 30.165l331.179 331.157c8.32 8.299 21.909 8.299 30.187 0.021v0zM707.584 190.048c-8.299-8.299-21.867-8.299-30.165 0l-330.859 330.859c-8.299 8.299-8.299 21.867 0 30.165l0.021 0.021c8.299 8.299 21.867 8.299 30.165 0l330.859-330.88c8.299-8.299 8.299-21.867-0.021-30.165v0zM595.008 283.019c-8.299 8.299-8.299 21.867 0 30.165l157.611 157.653c8.299 8.299 21.867 8.299 30.165 0l0.021-0.021c8.299-8.299 8.299-21.867 0-30.165l-157.632-157.632c-8.277-8.277-21.867-8.277-30.165 0v0zM752.789 470.816c8.277 8.32 21.845 8.32 30.144 0.021l225.707-225.685c8.299-8.299 8.299-21.867 0-30.165l-0.021-0.021c-8.299-8.299-21.867-8.299-30.165 0l-225.664 225.664c-8.299 8.299-8.299 21.867 0 30.187v0zM623.168 544.843c-47.061 0-85.333 38.272-85.333 85.333s38.272 85.333 85.333 85.333 85.333-38.272 85.333-85.333-38.272-85.333-85.333-85.333zM623.168 672.843c-23.531 0-42.667-19.115-42.667-42.667 0-23.531 19.136-42.667 42.667-42.667s42.667 19.136 42.667 42.667c0 23.531-19.157 42.667-42.667 42.667z" />
<glyph unicode="&#xe00f;" glyph-name="audio" data-tags="audio" d="M966.752 194.016c0-17.6-14.4-32-32-32v0c-17.6 0-32 14.4-32 32v512c0 17.6 14.4 32 32 32v0c17.6 0 32-14.4 32-32v-512zM774.752 322.016c0-17.6-14.4-32-32-32v0c-17.6 0-32 14.4-32 32v256c0 17.6 14.4 32 32 32v0c17.6 0 32-14.4 32-32v-256zM216.736 648.096c0-17.6-14.4-32-32-32h-146.72c-17.6 0-32 14.4-32 32v0c0 17.6 14.4 32 32 32h146.752c17.568 0 31.968-14.4 31.968-32v0zM222.752 262.592c0-17.6-14.4-32-32-32h-152.736c-17.6 0-32 14.4-32 32v0c0 17.6 14.4 32 32 32h152.736c17.6 0 32-14.4 32-32v0zM64 262.592c0-17.6-14.4-32-32-32v0c-17.6 0-32 14.4-32 32v385.504c0 17.6 14.4 32 32 32v0c17.6 0 32-14.4 32-32v-385.504zM224 266.56c0-17.6-14.4-32-32-32v0c-17.6 0-32 14.4-32 32v381.536c0 17.6 14.4 32 32 32v0c17.6 0 32-14.4 32-32v-381.536zM161.888 243.52c-13.28 11.552-14.656 31.904-3.104 45.152v0.032c11.552 13.248 31.872 14.656 45.152 3.104l338.816-295.072c13.28-11.552 14.656-31.872 3.104-45.152v0c-11.552-13.28-31.872-14.656-45.152-3.104l-338.816 295.040zM499.904 949.408c13.504 11.328 33.792 9.536 45.088-3.968 11.296-13.472 9.504-33.76-4-45.088l-328.352-275.2c-13.504-11.328-33.792-9.536-45.088 3.968s-9.536 33.76 3.968 45.056l328.384 275.232zM557.504-30.496c0-17.6-14.4-32-32-32v0c-17.6 0-32 14.4-32 32v960c0 17.6 14.4 32 32 32v0c17.6 0 32-14.4 32-32v-960z" />
<glyph unicode="&#xe010;" glyph-name="play" data-tags="play" d="M62.24 928c0 17.6 14.4 32 32 32v0c17.6 0 32-14.4 32-32v-960c0-17.6-14.4-32-32-32v0c-17.6 0-32 14.4-32 32v960zM79.968 901.888c-15.264 8.8-20.512 28.48-11.712 43.712s28.48 20.512 43.712 11.712l831.328-479.968c15.264-8.8 20.544-28.48 11.744-43.744-8.768-15.232-28.448-20.544-43.68-11.712l-831.392 480zM912.096 476.96c15.264 8.8 34.912 3.552 43.68-11.68s3.488-34.88-11.744-43.68l-831.456-479.904c-15.264-8.8-34.912-3.52-43.712 11.712v0c-8.8 15.264-3.52 34.912 11.712 43.712l831.52 479.84z" />
<glyph unicode="&#xe011;" glyph-name="pause" data-tags="pause" d="M62.24 928c0 17.6 14.4 32 32 32v0c17.6 0 32-14.4 32-32v-960c0-17.6-14.4-32-32-32v0c-17.6 0-32 14.4-32 32v960zM896 928c0 17.6 14.4 32 32 32v0c17.6 0 32-14.4 32-32v-960c0-17.6-14.4-32-32-32v0c-17.6 0-32 14.4-32 32v960z" />
<glyph unicode="&#xe012;" glyph-name="clip" data-tags="clip" d="M416.704 669.28c6.144 6.112 6.144 16.416 0 22.56-8.192 8.192-16.416 16.416-24.608 24.608-8.224 8.224-22.592-4.096-22.592-4.096l-295.424-295.392c-98.464-98.464-98.464-256.448-2.048-354.944l2.048-2.016c98.464-98.464 260.544-98.464 361.088 0l535.456 527.264c71.808 75.904 71.808 194.88-4.096 268.736 4.096 0 0 0 0 0-73.888 75.904-196.96 75.904-270.816 0l-517.024-508.768c-41.024-49.248-38.976-123.104 8.224-172.352 51.296-49.216 131.296-49.216 182.592 0l334.432 330.304c0 0 16.416 14.336 4.096 26.656-6.144 6.144-12.32 12.32-20.544 16.416-8.192 6.144-18.464 4.096-24.608-4.096l-336.48-328.256c-24.64-24.64-67.712-24.64-94.368 0-26.656 26.688-26.656 69.76 0 96.448l504.704 502.624c53.344 49.216 135.392 49.216 188.736 0 51.296-49.248 51.296-131.328 0-184.672l-512.928-504.672-22.56-24.64c-75.904-73.888-196.96-73.888-272.864 0-75.904 73.856-75.904 194.88-4.096 270.816z" />
<glyph unicode="&#xe013;" glyph-name="plus" data-tags="plus" d="M544-30.496c0-17.6-14.4-32-32-32v0c-17.6 0-32 14.4-32 32v960c0 17.6 14.4 32 32 32v0c17.6 0 32-14.4 32-32v-960zM32 417.504c-17.6 0-32 14.4-32 32v0c0 17.6 14.4 32 32 32h960c17.6 0 32-14.4 32-32v0c0-17.6-14.4-32-32-32h-960z" />
<glyph unicode="&#xe014;" glyph-name="close" data-tags="close" d="M195.232 87.488c-12.448-12.448-32.8-12.448-45.248 0s-12.448 32.8 0 45.248l678.784 678.784c12.448 12.448 32.8 12.448 45.248 0s12.448-32.8 0-45.248l-678.784-678.784zM149.984 766.272c-12.448 12.448-12.448 32.8 0 45.248s32.8 12.448 45.248 0l678.816-678.816c12.448-12.448 12.448-32.8 0-45.248s-32.8-12.448-45.248 0l-678.816 678.816z" />
<glyph unicode="&#xe015;" glyph-name="user" data-tags="user" d="M512 406.368c-150.784 0-273.472 122.688-273.472 273.536 0 150.784 122.688 273.44 273.472 273.44 150.816 0 273.472-122.656 273.472-273.44 0-150.816-122.656-273.536-273.472-273.536zM512 897.952c-120.32 0-218.048-97.728-218.048-218.016 0-120.32 97.728-218.048 218.048-218.048 120.352 0 218.048 97.728 218.048 218.048 0 120.288-97.696 218.016-218.048 218.016zM512 398.24c-155.296 0-281.632 126.336-281.632 281.664 0 155.264 126.336 281.6 281.632 281.6s281.632-126.336 281.632-281.6c0-155.296-126.336-281.664-281.632-281.664zM512 945.216c-146.304 0-265.344-119.040-265.344-265.312 0-146.336 119.040-265.376 265.344-265.376 146.272 0 265.344 119.040 265.344 265.376 0 146.272-119.072 265.312-265.344 265.312zM512 453.728c-124.704 0-226.176 101.472-226.176 226.176s101.472 226.176 226.176 226.176 226.176-101.44 226.176-226.176-101.472-226.176-226.176-226.176zM512 889.792c-115.744 0-209.92-94.144-209.92-209.888s94.144-209.92 209.92-209.92 209.92 94.176 209.92 209.92c0 115.744-94.176 209.888-209.92 209.888zM972.8-54.368c-15.296 0-27.584 12.384-27.584 27.616 0 238.752-194.144 432.896-432.96 432.896s-433.184-193.856-433.184-432.672c0-15.264-12.352-27.552-27.584-27.552s-27.84 12.32-27.84 27.552c0 269.28 219.072 488.384 488.352 488.384s488.384-219.104 488.384-488.384c0-15.264-12.416-27.84-27.584-27.84zM972.8-62.496c-19.712 0-35.744 16.032-35.744 35.744 0 234.208-190.528 424.768-424.8 424.768-234.368 0-425.056-190.464-425.056-424.576 0-19.68-16.032-35.712-35.744-35.712-19.84 0-35.968 16.032-35.968 35.712 0 273.824 222.72 496.544 496.512 496.544s496.512-222.72 496.512-496.512c0-19.84-16-35.968-35.712-35.968zM512.256 414.304c243.232 0 441.088-197.888 441.088-441.056 0-10.72 8.736-19.456 19.456-19.456s19.424 8.832 19.424 19.68c0 264.8-215.456 480.256-480.256 480.256s-480.224-215.424-480.224-480.256c0-10.72 8.832-19.424 19.68-19.424 10.72 0 19.456 8.704 19.456 19.424 0.032 243.072 198.016 440.832 441.376 440.832z" />
<glyph unicode="&#xe016;" glyph-name="comment" data-tags="comment" d="M56.448 18.144c6.048-12.096 18.144-18.112 30.24-18.112 92.736 0 171.328 22.144 260.032 74.56 42.336-8.064 126.976-16.096 165.28-16.096 282.208 0 512 189.472 512 421.248 0 231.808-229.792 419.296-512 419.296s-512-187.456-512-419.296c0-108.8 52.416-215.648 145.152-294.272-20.16-46.336-48.384-92.704-82.656-133.024-8.064-10.144-10.080-24.224-6.048-34.304zM64.512 479.712c0 195.52 201.568 354.784 447.488 354.784s447.488-159.264 447.488-354.784c0-197.536-201.6-356.736-447.488-356.736-36.288 0-133.024 10.048-165.28 16.128-8.064 2.016-16.128 0-24.192-4.032-60.48-36.32-112.896-56.48-167.328-66.528 24.192 36.256 44.352 76.608 58.464 116.896 6.048 12.096 2.016 28.224-10.080 36.288-90.688 68.512-139.072 159.232-139.072 257.984z" />
<glyph unicode="&#xe017;" glyph-name="tags" data-tags="tags" d="M897.984 961.504v0c0 0 0 0-1.984 0v0 0 0h-340c-8 0-32-16-34.016-18.016l-408-408c-24-24-24-66.016 0-90.016l52-51.968-52-50.016c-24-23.968-24-65.984 0-90.016l298.016-297.984c12-12.032 28-18.016 45.984-18.016 16 0 32 6.016 44 18.016l408 407.968c2.016 2.080 18.016 22.048 18.016 34.080v531.968c0 17.984-12 32-30.016 32zM864 409.504v-1.984l-406.016-406.016-297.984 296 50.016 52 202.016-202.016c12-12.032 28-18.016 45.984-18.016 16 0 32 6.016 44 18.016l361.984 362.016v-100zM864 705.504v-106.016l-406.016-405.984-297.984 296 404 405.984c2.016 0 4 2.016 4 2.016h296v-192zM736 801.504c0-18.016 16-32 32-32 18.016 0 32 14.016 32 32s-14.016 32-32 32c-16 0-32-13.984-32-32z" />
<glyph unicode="&#xe018;" glyph-name="search" data-tags="search" d="M432.32 145.152c-211.744 0-384 172.256-384 384s172.256 384 384 384c211.776 0 384-172.256 384-384 0.032-211.744-172.224-384-384-384zM432.32 849.184c-176.448 0-320-143.552-320-320s143.552-320 320-320 320 143.552 320 320-143.552 320-320 320zM966.336-4.832c-12.48-12.448-32.8-12.448-45.248 0l-254.112 254.048c-12.448 12.448-12.448 32.768 0 45.28v0c12.48 12.48 32.8 12.48 45.248 0.032l254.112-254.112c12.448-12.448 12.448-32.832 0-45.248z" />
<glyph unicode="&#xe019;" glyph-name="heart" data-tags="heart" d="M950.016 621.504c0 30.016-4 58.016-12 82.016-8 22.016-18.016 42.016-30.016 56-14.016 14.016-30.016 24-48 34.016-18.016 8-36 14.016-54.016 18.016-16 2.016-36 4-56 4-18.016 0-40-6.016-64-14.016-22.016-10.016-44-22.016-62.016-38.016-20-14.016-36-28-50.016-40-14.016-14.016-24-26.016-34.016-36-6.016-8-16-12-28-12s-22.016 4-28 12c-10.016 10.016-20 22.016-34.016 36-14.016 12-30.016 26.016-50.016 40-18.016 16-40 28-62.016 38.016-24 8-46.016 14.016-64 14.016-20 0-40-2.016-56-4-18.016-4-36-10.016-54.016-18.016-18.016-10.016-34.016-20-48-34.016-12-14.016-22.016-34.016-30.016-56-8-24-12-52-12-82.016 0-64 34.016-132 106.016-204l332.128-320 332 320c72 72 106.016 140 106.016 204zM1024 621.504c0-84-44-170.016-130.016-258.016l-356-342.016c-8-8-16-10.016-26.016-10.016s-18.016 2.016-26.016 10.016l-356 344c-4 2.016-8 8-16 14.016-6.016 8-16 20-32 38.016-14.016 18.016-26.016 36-38.016 56-12 18.016-22.016 42.016-30.016 68-10.016 28-14.016 54.016-14.016 80 0 84 24 148 72 196s116 70.016 202.016 70.016c22.016 0 46.016-4 72-12 24-8 46.016-18.016 68-32s40-28 54.016-40c16-12 30.016-24 44-38.016 14.016 14.016 28 26.016 44 38.016 14.016 12 32 26.016 54.016 40s44 24 68 32c26.016 8 50.016 12 72 12 86.016 0 154.016-22.016 202.016-70.016s72.032-112 72.032-196z" />
<glyph unicode="&#xe01a;" glyph-name="cart" data-tags="cart" d="M192 0c0-36 28-64 64-64s64 28 64 64c0 36-28 64-64 64s-64-28-64-64zM768 0c0-36 28-64 64-64s64 28 64 64c0 36-28 64-64 64s-64-28-64-64zM-2 800c0-18 14-32 32-32h66l40-170 56-278c0-2 2-4 2-6l-34-148c-2-8 0-18 8-26 6-8 14-12 24-12h726c18 0 32 14 32 32s-14 32-32 32h-686l14 66c4 0 6-2 10-2h584c34 0 56 6 74 48l102 318c20 58-20 82-56 82h-768c-4 0-10-2-14-2l-24 106c-4 14-18 24-32 24h-92c-18 0-32-14-32-32zM194 640h762l-102-314c-2-2-4-4-4-6-2 0-6 0-10 0h-584v6l-2 6z" />
<glyph unicode="&#xe01b;" glyph-name="quotes-left" data-tags="quotes-left" d="M960.16 789.248c-54.016-39.648-106.912-80.704-151.744-130.88-39.328-44-72.672-91.328-79.232-152.576-5.376-50.144 19.488-75.68 68.48-66.912 142.912 25.728 226.784-93.024 213.6-212.576-8.608-78.208-43.424-139.616-119.808-166.88-84.736-30.176-166.112-19.552-236.288 40.256-72.224 61.6-93.248 145.024-95.264 247.584 5.216 126.272 62.4 241.984 154.72 341.568 68.064 73.44 151.456 126.4 239.072 173.408zM1024 242.208c0-113.497-92.007-205.504-205.504-205.504s-205.504 92.007-205.504 205.504c0 113.497 92.007 205.504 205.504 205.504s205.504-92.007 205.504-205.504zM400.256 789.248c-54.016-39.648-106.912-80.704-151.744-130.88-39.328-44-72.672-91.328-79.232-152.576-5.376-50.144 19.488-75.68 68.448-66.912 142.944 25.728 226.816-93.024 213.632-212.544-8.608-78.24-43.424-139.648-119.808-166.88-84.8-30.176-166.144-19.552-236.288 40.288-72.224 61.568-93.248 145.024-95.264 247.584 5.216 126.272 62.4 241.984 154.72 341.568 68.064 73.44 151.456 126.4 239.072 173.408zM464.096 242.208c0-113.497-92.007-205.504-205.504-205.504s-205.504 92.007-205.504 205.504c0 113.497 92.007 205.504 205.504 205.504s205.504-92.007 205.504-205.504z" />
<glyph unicode="&#xe01c;" glyph-name="quotes" data-tags="quotes" d="M63.84 109.76c54.016 39.648 106.912 80.704 151.744 130.88 39.328 44 72.672 91.328 79.232 152.576 5.376 50.144-19.488 75.68-68.48 66.912-142.912-25.728-226.784 93.024-213.6 212.544 8.608 78.24 43.424 139.648 119.808 166.88 84.768 30.176 166.144 19.552 236.288-40.288 72.224-61.568 93.248-145.024 95.264-247.584-5.216-126.272-62.4-241.984-154.72-341.568-68.064-73.44-151.456-126.4-239.072-173.408zM411.008 656.8c0-113.497-92.007-205.504-205.504-205.504s-205.504 92.007-205.504 205.504c0 113.497 92.007 205.504 205.504 205.504s205.504-92.007 205.504-205.504zM623.744 109.76c54.016 39.648 106.912 80.704 151.744 130.88 39.328 44 72.672 91.328 79.232 152.576 5.376 50.144-19.488 75.68-68.448 66.912-142.944-25.728-226.816 93.024-213.632 212.544 8.608 78.24 43.424 139.648 119.808 166.88 84.768 30.208 166.112 19.584 236.288-40.256 72.224-61.6 93.28-145.056 95.264-247.616-5.216-126.272-62.4-241.984-154.72-341.568-68.064-73.44-151.456-126.4-239.072-173.408zM970.912 656.8c0-113.497-92.007-205.504-205.504-205.504s-205.504 92.007-205.504 205.504c0 113.497 92.007 205.504 205.504 205.504s205.504-92.007 205.504-205.504z" />
<glyph unicode="" glyph-name="quotes" data-tags="quotes" d="M63.84 109.76c54.016 39.648 106.912 80.704 151.744 130.88 39.328 44 72.672 91.328 79.232 152.576 5.376 50.144-19.488 75.68-68.48 66.912-142.912-25.728-226.784 93.024-213.6 212.544 8.608 78.24 43.424 139.648 119.808 166.88 84.768 30.176 166.144 19.552 236.288-40.288 72.224-61.568 93.248-145.024 95.264-247.584-5.216-126.272-62.4-241.984-154.72-341.568-68.064-73.44-151.456-126.4-239.072-173.408zM411.008 656.8c0-113.497-92.007-205.504-205.504-205.504s-205.504 92.007-205.504 205.504c0 113.497 92.007 205.504 205.504 205.504s205.504-92.007 205.504-205.504zM623.744 109.76c54.016 39.648 106.912 80.704 151.744 130.88 39.328 44 72.672 91.328 79.232 152.576 5.376 50.144-19.488 75.68-68.448 66.912-142.944-25.728-226.816 93.024-213.632 212.544 8.608 78.24 43.424 139.648 119.808 166.88 84.768 30.208 166.112 19.584 236.288-40.256 72.224-61.6 93.28-145.056 95.264-247.616-5.216-126.272-62.4-241.984-154.72-341.568-68.064-73.44-151.456-126.4-239.072-173.408zM970.912 656.8c0-113.497-92.007-205.504-205.504-205.504s-205.504 92.007-205.504 205.504c0 113.497 92.007 205.504 205.504 205.504s205.504-92.007 205.504-205.504z" />
<glyph unicode="" glyph-name="quotes" data-tags="quotes" d="M63.84 109.76c54.016 39.648 106.912 80.704 151.744 130.88 39.328 44 72.672 91.328 79.232 152.576 5.376 50.144-19.488 75.68-68.48 66.912-142.912-25.728-226.784 93.024-213.6 212.544 8.608 78.24 43.424 139.648 119.808 166.88 84.768 30.176 166.144 19.552 236.288-40.288 72.224-61.568 93.248-145.024 95.264-247.584-5.216-126.272-62.4-241.984-154.72-341.568-68.064-73.44-151.456-126.4-239.072-173.408zM411.008 656.8c0-113.497-92.007-205.504-205.504-205.504s-205.504 92.007-205.504 205.504c0 113.497 92.007 205.504 205.504 205.504s205.504-92.007 205.504-205.504zM623.744 109.76c54.016 39.648 106.912 80.704 151.744 130.88 39.328 44 72.672 91.328 79.232 152.576 5.376 50.144-19.488 75.68-68.448 66.912-142.944-25.728-226.816 93.024-213.632 212.544 8.608 78.24 43.424 139.648 119.808 166.88 84.768 30.208 166.112 19.584 236.288-40.256 72.224-61.6 93.28-145.056 95.264-247.616-5.216-126.272-62.4-241.984-154.72-341.568-68.064-73.44-151.456-126.4-239.072-173.408zM970.912 656.8c0-113.497-92.007-205.504-205.504-205.504s-205.504 92.007-205.504 205.504c0 113.497 92.007 205.504 205.504 205.504s205.504-92.007 205.504-205.504z" />
<glyph unicode="" glyph-name="quotes" data-tags="quotes" d="M63.84 109.76c54.016 39.648 106.912 80.704 151.744 130.88 39.328 44 72.672 91.328 79.232 152.576 5.376 50.144-19.488 75.68-68.48 66.912-142.912-25.728-226.784 93.024-213.6 212.544 8.608 78.24 43.424 139.648 119.808 166.88 84.768 30.176 166.144 19.552 236.288-40.288 72.224-61.568 93.248-145.024 95.264-247.584-5.216-126.272-62.4-241.984-154.72-341.568-68.064-73.44-151.456-126.4-239.072-173.408zM411.008 656.8c0-113.497-92.007-205.504-205.504-205.504s-205.504 92.007-205.504 205.504c0 113.497 92.007 205.504 205.504 205.504s205.504-92.007 205.504-205.504zM623.744 109.76c54.016 39.648 106.912 80.704 151.744 130.88 39.328 44 72.672 91.328 79.232 152.576 5.376 50.144-19.488 75.68-68.448 66.912-142.944-25.728-226.816 93.024-213.632 212.544 8.608 78.24 43.424 139.648 119.808 166.88 84.768 30.208 166.112 19.584 236.288-40.256 72.224-61.6 93.28-145.056 95.264-247.616-5.216-126.272-62.4-241.984-154.72-341.568-68.064-73.44-151.456-126.4-239.072-173.408zM970.912 656.8c0-113.497-92.007-205.504-205.504-205.504s-205.504 92.007-205.504 205.504c0 113.497 92.007 205.504 205.504 205.504s205.504-92.007 205.504-205.504z" />
<glyph unicode="user" glyph-name="user" data-tags="user" d="M512 406.368c-150.784 0-273.472 122.688-273.472 273.536 0 150.784 122.688 273.44 273.472 273.44 150.816 0 273.472-122.656 273.472-273.44 0-150.816-122.656-273.536-273.472-273.536zM512 897.952c-120.32 0-218.048-97.728-218.048-218.016 0-120.32 97.728-218.048 218.048-218.048 120.352 0 218.048 97.728 218.048 218.048 0 120.288-97.696 218.016-218.048 218.016zM512 398.24c-155.296 0-281.632 126.336-281.632 281.664 0 155.264 126.336 281.6 281.632 281.6s281.632-126.336 281.632-281.6c0-155.296-126.336-281.664-281.632-281.664zM512 945.216c-146.304 0-265.344-119.040-265.344-265.312 0-146.336 119.040-265.376 265.344-265.376 146.272 0 265.344 119.040 265.344 265.376 0 146.272-119.072 265.312-265.344 265.312zM512 453.728c-124.704 0-226.176 101.472-226.176 226.176s101.472 226.176 226.176 226.176 226.176-101.44 226.176-226.176-101.472-226.176-226.176-226.176zM512 889.792c-115.744 0-209.92-94.144-209.92-209.888s94.144-209.92 209.92-209.92 209.92 94.176 209.92 209.92c0 115.744-94.176 209.888-209.92 209.888zM972.8-54.368c-15.296 0-27.584 12.384-27.584 27.616 0 238.752-194.144 432.896-432.96 432.896s-433.184-193.856-433.184-432.672c0-15.264-12.352-27.552-27.584-27.552s-27.84 12.32-27.84 27.552c0 269.28 219.072 488.384 488.352 488.384s488.384-219.104 488.384-488.384c0-15.264-12.416-27.84-27.584-27.84zM972.8-62.496c-19.712 0-35.744 16.032-35.744 35.744 0 234.208-190.528 424.768-424.8 424.768-234.368 0-425.056-190.464-425.056-424.576 0-19.68-16.032-35.712-35.744-35.712-19.84 0-35.968 16.032-35.968 35.712 0 273.824 222.72 496.544 496.512 496.544s496.512-222.72 496.512-496.512c0-19.84-16-35.968-35.712-35.968zM512.256 414.304c243.232 0 441.088-197.888 441.088-441.056 0-10.72 8.736-19.456 19.456-19.456s19.424 8.832 19.424 19.68c0 264.8-215.456 480.256-480.256 480.256s-480.224-215.424-480.224-480.256c0-10.72 8.832-19.424 19.68-19.424 10.72 0 19.456 8.704 19.456 19.424 0.032 243.072 198.016 440.832 441.376 440.832z" />
<glyph unicode="tags" glyph-name="tags" data-tags="tags" d="M897.984 961.504v0c0 0 0 0-1.984 0v0 0 0h-340c-8 0-32-16-34.016-18.016l-408-408c-24-24-24-66.016 0-90.016l52-51.968-52-50.016c-24-23.968-24-65.984 0-90.016l298.016-297.984c12-12.032 28-18.016 45.984-18.016 16 0 32 6.016 44 18.016l408 407.968c2.016 2.080 18.016 22.048 18.016 34.080v531.968c0 17.984-12 32-30.016 32zM864 409.504v-1.984l-406.016-406.016-297.984 296 50.016 52 202.016-202.016c12-12.032 28-18.016 45.984-18.016 16 0 32 6.016 44 18.016l361.984 362.016v-100zM864 705.504v-106.016l-406.016-405.984-297.984 296 404 405.984c2.016 0 4 2.016 4 2.016h296v-192zM736 801.504c0-18.016 16-32 32-32 18.016 0 32 14.016 32 32s-14.016 32-32 32c-16 0-32-13.984-32-32z" />
<glyph unicode="search" glyph-name="search" data-tags="search" d="M432.32 145.152c-211.744 0-384 172.256-384 384s172.256 384 384 384c211.776 0 384-172.256 384-384 0.032-211.744-172.224-384-384-384zM432.32 849.184c-176.448 0-320-143.552-320-320s143.552-320 320-320 320 143.552 320 320-143.552 320-320 320zM966.336-4.832c-12.48-12.448-32.8-12.448-45.248 0l-254.112 254.048c-12.448 12.448-12.448 32.768 0 45.28v0c12.48 12.48 32.8 12.48 45.248 0.032l254.112-254.112c12.448-12.448 12.448-32.832 0-45.248z" />
<glyph unicode="quotes-left" glyph-name="quotes-left" data-tags="quotes-left" d="M960.16 789.248c-54.016-39.648-106.912-80.704-151.744-130.88-39.328-44-72.672-91.328-79.232-152.576-5.376-50.144 19.488-75.68 68.48-66.912 142.912 25.728 226.784-93.024 213.6-212.576-8.608-78.208-43.424-139.616-119.808-166.88-84.736-30.176-166.112-19.552-236.288 40.256-72.224 61.6-93.248 145.024-95.264 247.584 5.216 126.272 62.4 241.984 154.72 341.568 68.064 73.44 151.456 126.4 239.072 173.408zM1024 242.208c0-113.497-92.007-205.504-205.504-205.504s-205.504 92.007-205.504 205.504c0 113.497 92.007 205.504 205.504 205.504s205.504-92.007 205.504-205.504zM400.256 789.248c-54.016-39.648-106.912-80.704-151.744-130.88-39.328-44-72.672-91.328-79.232-152.576-5.376-50.144 19.488-75.68 68.448-66.912 142.944 25.728 226.816-93.024 213.632-212.544-8.608-78.24-43.424-139.648-119.808-166.88-84.8-30.176-166.144-19.552-236.288 40.288-72.224 61.568-93.248 145.024-95.264 247.584 5.216 126.272 62.4 241.984 154.72 341.568 68.064 73.44 151.456 126.4 239.072 173.408zM464.096 242.208c0-113.497-92.007-205.504-205.504-205.504s-205.504 92.007-205.504 205.504c0 113.497 92.007 205.504 205.504 205.504s205.504-92.007 205.504-205.504z" />
<glyph unicode="quotes" glyph-name="quotes" data-tags="quotes" d="M63.84 109.76c54.016 39.648 106.912 80.704 151.744 130.88 39.328 44 72.672 91.328 79.232 152.576 5.376 50.144-19.488 75.68-68.48 66.912-142.912-25.728-226.784 93.024-213.6 212.544 8.608 78.24 43.424 139.648 119.808 166.88 84.768 30.176 166.144 19.552 236.288-40.288 72.224-61.568 93.248-145.024 95.264-247.584-5.216-126.272-62.4-241.984-154.72-341.568-68.064-73.44-151.456-126.4-239.072-173.408zM411.008 656.8c0-113.497-92.007-205.504-205.504-205.504s-205.504 92.007-205.504 205.504c0 113.497 92.007 205.504 205.504 205.504s205.504-92.007 205.504-205.504zM623.744 109.76c54.016 39.648 106.912 80.704 151.744 130.88 39.328 44 72.672 91.328 79.232 152.576 5.376 50.144-19.488 75.68-68.448 66.912-142.944-25.728-226.816 93.024-213.632 212.544 8.608 78.24 43.424 139.648 119.808 166.88 84.768 30.208 166.112 19.584 236.288-40.256 72.224-61.6 93.28-145.056 95.264-247.616-5.216-126.272-62.4-241.984-154.72-341.568-68.064-73.44-151.456-126.4-239.072-173.408zM970.912 656.8c0-113.497-92.007-205.504-205.504-205.504s-205.504 92.007-205.504 205.504c0 113.497 92.007 205.504 205.504 205.504s205.504-92.007 205.504-205.504z" />
<glyph unicode="plus" glyph-name="plus" data-tags="plus" d="M544-30.496c0-17.6-14.4-32-32-32v0c-17.6 0-32 14.4-32 32v960c0 17.6 14.4 32 32 32v0c17.6 0 32-14.4 32-32v-960zM32 417.504c-17.6 0-32 14.4-32 32v0c0 17.6 14.4 32 32 32h960c17.6 0 32-14.4 32-32v0c0-17.6-14.4-32-32-32h-960z" />
<glyph unicode="play" glyph-name="play" data-tags="play" d="M62.24 928c0 17.6 14.4 32 32 32v0c17.6 0 32-14.4 32-32v-960c0-17.6-14.4-32-32-32v0c-17.6 0-32 14.4-32 32v960zM79.968 901.888c-15.264 8.8-20.512 28.48-11.712 43.712s28.48 20.512 43.712 11.712l831.328-479.968c15.264-8.8 20.544-28.48 11.744-43.744-8.768-15.232-28.448-20.544-43.68-11.712l-831.392 480zM912.096 476.96c15.264 8.8 34.912 3.552 43.68-11.68s3.488-34.88-11.744-43.68l-831.456-479.904c-15.264-8.8-34.912-3.52-43.712 11.712v0c-8.8 15.264-3.52 34.912 11.712 43.712l831.52 479.84z" />
<glyph unicode="pause" glyph-name="pause" data-tags="pause" d="M62.24 928c0 17.6 14.4 32 32 32v0c17.6 0 32-14.4 32-32v-960c0-17.6-14.4-32-32-32v0c-17.6 0-32 14.4-32 32v960zM896 928c0 17.6 14.4 32 32 32v0c17.6 0 32-14.4 32-32v-960c0-17.6-14.4-32-32-32v0c-17.6 0-32 14.4-32 32v960z" />
<glyph unicode="more" glyph-name="more" data-tags="more" d="M192 449.504c0-53.019-42.981-96-96-96s-96 42.981-96 96c0 53.019 42.981 96 96 96s96-42.981 96-96zM1024 449.504c0-53.019-42.981-96-96-96s-96 42.981-96 96c0 53.019 42.981 96 96 96s96-42.981 96-96zM608 449.504c0-53.019-42.981-96-96-96s-96 42.981-96 96c0 53.019 42.981 96 96 96s96-42.981 96-96z" />
<glyph unicode="image" glyph-name="image" data-tags="image" d="M376.704 551.093c8.299-8.299 8.299-21.867 0-30.165l-331.179-331.221c-8.299-8.299-21.867-8.299-30.165 0l-0.021 0.043c-8.299 8.299-8.277 21.867 0 30.165l331.179 331.157c8.32 8.299 21.909 8.299 30.187 0.021v0zM707.584 190.048c-8.299-8.299-21.867-8.299-30.165 0l-330.859 330.859c-8.299 8.299-8.299 21.867 0 30.165l0.021 0.021c8.299 8.299 21.867 8.299 30.165 0l330.859-330.88c8.299-8.299 8.299-21.867-0.021-30.165v0zM595.008 283.019c-8.299 8.299-8.299 21.867 0 30.165l157.611 157.653c8.299 8.299 21.867 8.299 30.165 0l0.021-0.021c8.299-8.299 8.299-21.867 0-30.165l-157.632-157.632c-8.277-8.277-21.867-8.277-30.165 0v0zM752.789 470.816c8.277 8.32 21.845 8.32 30.144 0.021l225.707-225.685c8.299-8.299 8.299-21.867 0-30.165l-0.021-0.021c-8.299-8.299-21.867-8.299-30.165 0l-225.664 225.664c-8.299 8.299-8.299 21.867 0 30.187v0zM623.168 544.843c-47.061 0-85.333 38.272-85.333 85.333s38.272 85.333 85.333 85.333 85.333-38.272 85.333-85.333-38.272-85.333-85.333-85.333zM623.168 672.843c-23.531 0-42.667-19.115-42.667-42.667 0-23.531 19.136-42.667 42.667-42.667s42.667 19.136 42.667 42.667c0 23.531-19.157 42.667-42.667 42.667z" />
<glyph unicode="heart" glyph-name="heart" data-tags="heart" d="M950.016 621.504c0 30.016-4 58.016-12 82.016-8 22.016-18.016 42.016-30.016 56-14.016 14.016-30.016 24-48 34.016-18.016 8-36 14.016-54.016 18.016-16 2.016-36 4-56 4-18.016 0-40-6.016-64-14.016-22.016-10.016-44-22.016-62.016-38.016-20-14.016-36-28-50.016-40-14.016-14.016-24-26.016-34.016-36-6.016-8-16-12-28-12s-22.016 4-28 12c-10.016 10.016-20 22.016-34.016 36-14.016 12-30.016 26.016-50.016 40-18.016 16-40 28-62.016 38.016-24 8-46.016 14.016-64 14.016-20 0-40-2.016-56-4-18.016-4-36-10.016-54.016-18.016-18.016-10.016-34.016-20-48-34.016-12-14.016-22.016-34.016-30.016-56-8-24-12-52-12-82.016 0-64 34.016-132 106.016-204l332.128-320 332 320c72 72 106.016 140 106.016 204zM1024 621.504c0-84-44-170.016-130.016-258.016l-356-342.016c-8-8-16-10.016-26.016-10.016s-18.016 2.016-26.016 10.016l-356 344c-4 2.016-8 8-16 14.016-6.016 8-16 20-32 38.016-14.016 18.016-26.016 36-38.016 56-12 18.016-22.016 42.016-30.016 68-10.016 28-14.016 54.016-14.016 80 0 84 24 148 72 196s116 70.016 202.016 70.016c22.016 0 46.016-4 72-12 24-8 46.016-18.016 68-32s40-28 54.016-40c16-12 30.016-24 44-38.016 14.016 14.016 28 26.016 44 38.016 14.016 12 32 26.016 54.016 40s44 24 68 32c26.016 8 50.016 12 72 12 86.016 0 154.016-22.016 202.016-70.016s72.032-112 72.032-196z" />
<glyph unicode="comment" glyph-name="comment" data-tags="comment" d="M56.448 18.144c6.048-12.096 18.144-18.112 30.24-18.112 92.736 0 171.328 22.144 260.032 74.56 42.336-8.064 126.976-16.096 165.28-16.096 282.208 0 512 189.472 512 421.248 0 231.808-229.792 419.296-512 419.296s-512-187.456-512-419.296c0-108.8 52.416-215.648 145.152-294.272-20.16-46.336-48.384-92.704-82.656-133.024-8.064-10.144-10.080-24.224-6.048-34.304zM64.512 479.712c0 195.52 201.568 354.784 447.488 354.784s447.488-159.264 447.488-354.784c0-197.536-201.6-356.736-447.488-356.736-36.288 0-133.024 10.048-165.28 16.128-8.064 2.016-16.128 0-24.192-4.032-60.48-36.32-112.896-56.48-167.328-66.528 24.192 36.256 44.352 76.608 58.464 116.896 6.048 12.096 2.016 28.224-10.080 36.288-90.688 68.512-139.072 159.232-139.072 257.984z" />
<glyph unicode="close" glyph-name="close" data-tags="close" d="M195.232 87.488c-12.448-12.448-32.8-12.448-45.248 0s-12.448 32.8 0 45.248l678.784 678.784c12.448 12.448 32.8 12.448 45.248 0s12.448-32.8 0-45.248l-678.784-678.784zM149.984 766.272c-12.448 12.448-12.448 32.8 0 45.248s32.8 12.448 45.248 0l678.816-678.816c12.448-12.448 12.448-32.8 0-45.248s-32.8-12.448-45.248 0l-678.816 678.816z" />
<glyph unicode="clip" glyph-name="clip" data-tags="clip" d="M416.704 669.28c6.144 6.112 6.144 16.416 0 22.56-8.192 8.192-16.416 16.416-24.608 24.608-8.224 8.224-22.592-4.096-22.592-4.096l-295.424-295.392c-98.464-98.464-98.464-256.448-2.048-354.944l2.048-2.016c98.464-98.464 260.544-98.464 361.088 0l535.456 527.264c71.808 75.904 71.808 194.88-4.096 268.736 4.096 0 0 0 0 0-73.888 75.904-196.96 75.904-270.816 0l-517.024-508.768c-41.024-49.248-38.976-123.104 8.224-172.352 51.296-49.216 131.296-49.216 182.592 0l334.432 330.304c0 0 16.416 14.336 4.096 26.656-6.144 6.144-12.32 12.32-20.544 16.416-8.192 6.144-18.464 4.096-24.608-4.096l-336.48-328.256c-24.64-24.64-67.712-24.64-94.368 0-26.656 26.688-26.656 69.76 0 96.448l504.704 502.624c53.344 49.216 135.392 49.216 188.736 0 51.296-49.248 51.296-131.328 0-184.672l-512.928-504.672-22.56-24.64c-75.904-73.888-196.96-73.888-272.864 0-75.904 73.856-75.904 194.88-4.096 270.816z" />
<glyph unicode="cart" glyph-name="cart" data-tags="cart" d="M192 0c0-36 28-64 64-64s64 28 64 64c0 36-28 64-64 64s-64-28-64-64zM768 0c0-36 28-64 64-64s64 28 64 64c0 36-28 64-64 64s-64-28-64-64zM-2 800c0-18 14-32 32-32h66l40-170 56-278c0-2 2-4 2-6l-34-148c-2-8 0-18 8-26 6-8 14-12 24-12h726c18 0 32 14 32 32s-14 32-32 32h-686l14 66c4 0 6-2 10-2h584c34 0 56 6 74 48l102 318c20 58-20 82-56 82h-768c-4 0-10-2-14-2l-24 106c-4 14-18 24-32 24h-92c-18 0-32-14-32-32zM194 640h762l-102-314c-2-2-4-4-4-6-2 0-6 0-10 0h-584v6l-2 6z" />
<glyph unicode="audio" glyph-name="audio" data-tags="audio" d="M966.752 194.016c0-17.6-14.4-32-32-32v0c-17.6 0-32 14.4-32 32v512c0 17.6 14.4 32 32 32v0c17.6 0 32-14.4 32-32v-512zM774.752 322.016c0-17.6-14.4-32-32-32v0c-17.6 0-32 14.4-32 32v256c0 17.6 14.4 32 32 32v0c17.6 0 32-14.4 32-32v-256zM216.736 648.096c0-17.6-14.4-32-32-32h-146.72c-17.6 0-32 14.4-32 32v0c0 17.6 14.4 32 32 32h146.752c17.568 0 31.968-14.4 31.968-32v0zM222.752 262.592c0-17.6-14.4-32-32-32h-152.736c-17.6 0-32 14.4-32 32v0c0 17.6 14.4 32 32 32h152.736c17.6 0 32-14.4 32-32v0zM64 262.592c0-17.6-14.4-32-32-32v0c-17.6 0-32 14.4-32 32v385.504c0 17.6 14.4 32 32 32v0c17.6 0 32-14.4 32-32v-385.504zM224 266.56c0-17.6-14.4-32-32-32v0c-17.6 0-32 14.4-32 32v381.536c0 17.6 14.4 32 32 32v0c17.6 0 32-14.4 32-32v-381.536zM161.888 243.52c-13.28 11.552-14.656 31.904-3.104 45.152v0.032c11.552 13.248 31.872 14.656 45.152 3.104l338.816-295.072c13.28-11.552 14.656-31.872 3.104-45.152v0c-11.552-13.28-31.872-14.656-45.152-3.104l-338.816 295.040zM499.904 949.408c13.504 11.328 33.792 9.536 45.088-3.968 11.296-13.472 9.504-33.76-4-45.088l-328.352-275.2c-13.504-11.328-33.792-9.536-45.088 3.968s-9.536 33.76 3.968 45.056l328.384 275.232zM557.504-30.496c0-17.6-14.4-32-32-32v0c-17.6 0-32 14.4-32 32v960c0 17.6 14.4 32 32 32v0c17.6 0 32-14.4 32-32v-960z" />
<glyph unicode="article" glyph-name="article" data-tags="article" d="M832 929.504c0-17.6-14.4-32-32-32h-768c-17.6 0-32 14.4-32 32v0c0 17.6 14.4 32 32 32h768c17.6 0 32-14.4 32-32v0zM992-62.496c-17.6 0-32 14.4-32 32v768c0 17.6 14.4 32 32 32v0c17.6 0 32-14.4 32-32v-768c0-17.6-14.4-32-32-32v0zM32-62.496c-17.6 0-32 14.4-32 32v960c0 17.6 14.4 32 32 32v0c17.6 0 32-14.4 32-32v-960c0-17.6-14.4-32-32-32v0zM1024-30.496c0-17.6-14.4-32-32-32h-960c-17.6 0-32 14.4-32 32v0c0 17.6 14.4 32 32 32h960c17.6 0 32-14.4 32-32v0zM1010.72 718.72c-12.448-12.448-32.8-12.448-45.248 0l-182.368 182.4c-12.448 12.448-12.448 32.8 0 45.248s32.8 12.448 45.248 0l182.368-182.4c12.448-12.448 12.448-32.8 0-45.248zM640.416 689.504c0-8.8-7.2-16-16-16h-352.416c-8.8 0-16 7.2-16 16v0c0 8.8 7.2 16 16 16h352.416c8.8 0 16-7.2 16-16v0zM768 529.504c0-8.8-7.2-16-16-16h-480c-8.8 0-16 7.2-16 16v0c0 8.8 7.2 16 16 16h480c8.8 0 16-7.2 16-16v0zM768 369.504c0-8.8-7.2-16-16-16h-480c-8.8 0-16 7.2-16 16v0c0 8.8 7.2 16 16 16h480c8.8 0 16-7.2 16-16v0zM768 209.504c0-8.8-7.2-16-16-16h-480c-8.8 0-16 7.2-16 16v0c0 8.8 7.2 16 16 16h480c8.8 0 16-7.2 16-16v0z" />
<glyph unicode="arrow-up" glyph-name="arrow-up" data-tags="arrow-up" d="M523.296 766.688c6.208-6.208 6.208-16.416 0-22.624l-184.096-184.096c-6.208-6.208-16.416-6.208-22.624 0s-6.208 16.416 0 22.624l184.096 184.096c6.208 6.208 16.384 6.208 22.624 0zM500.704 766.688c6.208 6.208 16.416 6.208 22.624 0l184.096-184.096c6.208-6.208 6.208-16.416 0-22.624s-16.416-6.208-22.624 0l-184.096 184.096c-6.208 6.208-6.208 16.416 0 22.624zM511.904 760.992c8.8 0 16-7.2 16-16v-608c0-8.8-7.2-16-16-16v0c-8.8 0-16 7.2-16 16v608c0 8.8 7.2 16 16 16v0z" />
<glyph unicode="arrow-right" glyph-name="arrow-right" data-tags="arrow-right" d="M829.184 438.208c-6.208-6.208-16.416-6.208-22.624 0l-184.096 184.096c-6.208 6.208-6.208 16.416 0 22.624s16.416 6.208 22.624 0l184.096-184.096c6.208-6.208 6.208-16.384 0-22.624zM829.184 460.8c6.208-6.208 6.208-16.416 0-22.624l-184.096-184.096c-6.208-6.208-16.416-6.208-22.624 0s-6.208 16.416 0 22.624l184.096 184.096c6.208 6.208 16.416 6.208 22.624 0zM823.488 449.6c0-8.8-7.2-16-16-16h-608c-8.8 0-16 7.2-16 16v0c0 8.8 7.2 16 16 16h608c8.832 0 16-7.2 16-16v0z" />
<glyph unicode="arrow-left" glyph-name="arrow-left" data-tags="arrow-left" d="M194.816 460.8c6.208 6.208 16.416 6.208 22.624 0l184.096-184.096c6.208-6.208 6.208-16.416 0-22.624s-16.416-6.208-22.624 0l-184.096 184.096c-6.208 6.208-6.208 16.384 0 22.624zM194.816 438.208c-6.208 6.208-6.208 16.416 0 22.624l184.096 184.096c6.208 6.208 16.416 6.208 22.624 0s6.208-16.416 0-22.624l-184.096-184.096c-6.208-6.208-16.416-6.208-22.624 0zM200.512 449.408c0 8.8 7.2 16 16 16h608c8.8 0 16-7.2 16-16v0c0-8.8-7.2-16-16-16h-608c-8.8 0-16 7.2-16 16v0z" />
<glyph unicode="arrow-down" glyph-name="arrow-down" data-tags="arrow-down" d="M500.704 132.32c-6.208 6.208-6.208 16.416 0 22.624l184.096 184.096c6.208 6.208 16.416 6.208 22.624 0s6.208-16.416 0-22.624l-184.096-184.096c-6.208-6.208-16.384-6.208-22.624 0zM523.296 132.32c-6.208-6.208-16.416-6.208-22.624 0l-184.096 184.096c-6.208 6.208-6.208 16.416 0 22.624s16.416 6.208 22.624 0l184.096-184.096c6.208-6.208 6.208-16.416 0-22.624zM512.096 138.016c-8.8 0-16 7.2-16 16v608c0 8.8 7.2 16 16 16v0c8.8 0 16-7.2 16-16v-608c0-8.832-7.2-16-16-16v0z" />
<glyph unicode="arrow-alt-up" glyph-name="arrow-alt-up" data-tags="arrow-alt-up" d="M523.36 953.952c6.208-6.208 6.208-16.448 0-22.624l-184.064-184.096c-6.208-6.208-16.448-6.208-22.624 0-6.208 6.208-6.208 16.416 0 22.624l184.064 184.096c6.208 6.176 16.384 6.176 22.624 0zM500.768 953.952c6.208 6.176 16.416 6.176 22.624 0l184.096-184.096c6.176-6.208 6.176-16.416 0-22.624-6.208-6.208-16.448-6.208-22.624 0l-184.096 184.096c-6.208 6.176-6.208 16.384 0 22.624zM512.032 948.352c8.8 0 16-7.2 16-16l-0.032-976c0-8.8-7.2-16-16-16s-16 7.2-16 16v976c0.032 8.8 7.232 16 16.032 16v0z" />
<glyph unicode="arrow-alt-right" glyph-name="arrow-alt-right" data-tags="arrow-alt-right" d="M1016.48 438.208c-6.208-6.208-16.448-6.208-22.624 0l-184.096 184.096c-6.208 6.208-6.208 16.416 0 22.624s16.416 6.208 22.624 0l184.096-184.096c6.176-6.208 6.176-16.384 0-22.624zM1016.48 460.8c6.176-6.208 6.176-16.416 0-22.624l-184.096-184.096c-6.208-6.176-16.416-6.176-22.624 0-6.208 6.208-6.208 16.448 0 22.624l184.096 184.096c6.176 6.208 16.384 6.208 22.624 0zM1010.88 449.536c0-8.8-7.2-16-16-16h-976c-8.8 0-16 7.2-16 16v0c0 8.8 7.2 16 16 16h976c8.8 0 16-7.2 16-16v0z" />
<glyph unicode="arrow-alt-left" glyph-name="arrow-alt-left" data-tags="arrow-alt-left" d="M7.488 460.8c6.208 6.208 16.448 6.208 22.624 0l184.096-184.064c6.208-6.208 6.208-16.448 0-22.624-6.208-6.208-16.416-6.208-22.624 0l-184.096 184.064c-6.176 6.208-6.176 16.384 0 22.624zM7.488 438.208c-6.176 6.208-6.176 16.416 0 22.624l184.096 184.096c6.208 6.176 16.416 6.176 22.624 0 6.208-6.208 6.208-16.448 0-22.624l-184.096-184.096c-6.176-6.208-16.384-6.208-22.624 0zM13.088 449.472c0 8.768 7.2 16 16 16h976c8.8 0 16-7.2 16-16s-7.2-16-16-16h-976c-8.8 0-16 7.2-16 16z" />
<glyph unicode="arrow-alt-down" glyph-name="arrow-alt-down" data-tags="arrow-alt-down" d="M500.704-54.976c-6.208 6.208-6.208 16.448 0 22.624l184.064 184.096c6.208 6.208 16.448 6.208 22.624 0 6.208-6.208 6.208-16.416 0-22.624l-184.064-184.096c-6.208-6.176-16.384-6.176-22.624 0zM523.296-54.976c-6.208-6.176-16.416-6.176-22.624 0l-184.096 184.096c-6.176 6.208-6.176 16.416 0 22.624 6.208 6.208 16.448 6.208 22.624 0l184.096-184.096c6.208-6.176 6.208-16.384 0-22.624zM512.032-49.376c-8.768 0-16 7.2-16 16v976c0 8.8 7.2 16 16 16s16-7.2 16-16v-976c0-8.8-7.2-16-16-16z" />
<glyph unicode="angle-up" glyph-name="angle-up" data-tags="angle-up" d="M523.328 705.536c6.208-6.208 6.208-16.416 0-22.624l-489.44-489.44c-6.208-6.208-16.416-6.208-22.624 0s-6.208 16.416 0 22.624l489.408 489.44c6.24 6.208 16.416 6.208 22.656 0zM500.672 705.536c6.208 6.208 16.416 6.208 22.624 0l489.44-489.44c6.208-6.208 6.208-16.416 0-22.624s-16.416-6.208-22.624 0l-489.44 489.44c-6.208 6.208-6.208 16.416 0 22.624z" />
<glyph unicode="angle-right" glyph-name="angle-right" data-tags="angle-right" d="M768.032 438.176c-6.208-6.208-16.416-6.208-22.624 0l-489.44 489.44c-6.208 6.208-6.208 16.416 0 22.624s16.416 6.208 22.624 0l489.44-489.44c6.208-6.208 6.208-16.384 0-22.624zM768.032 460.832c6.208-6.208 6.208-16.416 0-22.624l-489.44-489.44c-6.208-6.208-16.416-6.208-22.624 0s-6.208 16.416 0 22.624l489.44 489.44c6.208 6.208 16.416 6.208 22.624 0z" />
<glyph unicode="angle-left" glyph-name="angle-left" data-tags="angle-left" d="M255.968 460.832c6.208 6.208 16.416 6.208 22.624 0l489.44-489.44c6.208-6.208 6.208-16.416 0-22.624s-16.416-6.208-22.624 0l-489.44 489.408c-6.208 6.24-6.208 16.416 0 22.656zM255.968 438.176c-6.208 6.208-6.208 16.416 0 22.624l489.44 489.44c6.208 6.208 16.416 6.208 22.624 0s6.208-16.416 0-22.624l-489.44-489.44c-6.208-6.208-16.416-6.208-22.624 0z" />
<glyph unicode="angle-down" glyph-name="angle-down" data-tags="angle-down" d="M500.672 193.472c-6.208 6.208-6.208 16.416 0 22.624l489.44 489.44c6.208 6.208 16.416 6.208 22.624 0s6.208-16.416 0-22.624l-489.408-489.44c-6.24-6.208-16.416-6.208-22.656 0zM523.328 193.472c-6.208-6.208-16.416-6.208-22.624 0l-489.44 489.44c-6.208 6.208-6.208 16.416 0 22.624s16.416 6.208 22.624 0l489.44-489.44c6.208-6.208 6.208-16.416 0-22.624z" />
</font>
</defs>
</svg>
