<svg xmlns="http://www.w3.org/2000/svg" viewBox="481 417 180 158"><defs><style>.a{fill:#fff;}.b{fill:#3a3b3c;font-size:13px;font-family:SegoeUI-Semibold, Segoe UI;font-weight:600;letter-spacing:0.03em;}.c{fill:none;}.d{fill:#e3e3e4;}.e{fill:#b8b9ba;}.f{fill:#c7c7c8;}</style></defs><rect class="a" width="180" height="158" transform="translate(481 417)"/><text class="b" transform="translate(490.612 437.082)"><tspan x="0" y="0">No Sidebar</tspan></text><rect class="c" width="96.759" height="29.388" transform="translate(553.673 529.408)"/><rect class="c" width="96.759" height="27.918" transform="translate(553.673 529.408)"/><rect class="d" width="160" height="54" transform="translate(491 447)"/><g transform="translate(-30)"><rect class="e" width="157" height="3" rx="1.5" transform="translate(521 509)"/><rect class="e" width="97.914" height="3" rx="1.5" transform="translate(521 516)"/></g><rect class="f" width="160" height="2" rx="1" transform="translate(491 526)"/><rect class="f" width="136.667" height="2" rx="1" transform="translate(491 532)"/><rect class="f" width="153.333" height="2" rx="1" transform="translate(491 538)"/><rect class="f" width="130" height="2" rx="1" transform="translate(491 544)"/><rect class="f" width="145" height="2" rx="1" transform="translate(491 550)"/><rect class="f" width="160" height="2" rx="1" transform="translate(491 556)"/><rect class="f" width="61.667" height="2" rx="1" transform="translate(491 562)"/></svg>