<svg xmlns="http://www.w3.org/2000/svg" viewBox="881 417 180 158"><defs><style>.a{fill:#fff;}.b{fill:#3a3b3c;font-size:13px;font-family:SegoeUI-Semibold, Segoe UI;font-weight:600;letter-spacing:0.03em;}.c{fill:none;}.d{fill:#e3e3e4;}.e{fill:#b8b9ba;}.f{fill:#c7c7c8;}.g{fill:#95989a;}</style></defs><rect class="a" width="180" height="158" transform="translate(881 417)"/><text class="b" transform="translate(890.612 437.082)"><tspan x="0" y="0">Right Sidebar</tspan></text><rect class="c" width="96.759" height="29.388" transform="translate(953.673 529.408)"/><rect class="c" width="96.759" height="27.918" transform="translate(953.673 529.408)"/><path class="d" d="M0,0H22V16H0Z" transform="translate(1001 447)"/><rect class="e" width="18" height="2" rx="1" transform="translate(1025 449)"/><rect class="f" width="24" height="1" rx="0.5" transform="translate(1025 454)"/><rect class="f" width="24" height="1" rx="0.5" transform="translate(1025 456)"/><rect class="f" width="24" height="1" rx="0.5" transform="translate(1025 458)"/><rect class="f" width="15" height="1" rx="0.5" transform="translate(1025 460)"/><path class="d" d="M0,0H22V16H0Z" transform="translate(1001 468)"/><rect class="e" width="18" height="2" rx="1" transform="translate(1025 470)"/><rect class="f" width="24" height="1" rx="0.5" transform="translate(1025 475)"/><rect class="f" width="24" height="1" rx="0.5" transform="translate(1025 477)"/><rect class="f" width="24" height="1" rx="0.5" transform="translate(1025 479)"/><rect class="f" width="15" height="1" rx="0.5" transform="translate(1025 481)"/><path class="d" d="M0,0H22V16H0Z" transform="translate(1001 489)"/><rect class="e" width="18" height="2" rx="1" transform="translate(1025 491)"/><rect class="f" width="24" height="1" rx="0.5" transform="translate(1025 496)"/><rect class="f" width="24" height="1" rx="0.5" transform="translate(1025 498)"/><rect class="f" width="24" height="1" rx="0.5" transform="translate(1025 500)"/><rect class="f" width="15" height="1" rx="0.5" transform="translate(1025 502)"/><rect class="e" width="36" height="3" rx="1.5" transform="translate(1001 520)"/><rect class="f" width="44" height="2" rx="1" transform="translate(1007 528)"/><rect class="f" width="21" height="2" rx="1" transform="translate(1007 532)"/><circle class="g" cx="1" cy="1" r="1" transform="translate(1001 528)"/><rect class="f" width="44" height="2" rx="1" transform="translate(1007 540)"/><rect class="f" width="21" height="2" rx="1" transform="translate(1007 544)"/><circle class="g" cx="1" cy="1" r="1" transform="translate(1001 540)"/><rect class="f" width="44" height="2" rx="1" transform="translate(1007 552)"/><rect class="f" width="21" height="2" rx="1" transform="translate(1007 556)"/><circle class="g" cx="1" cy="1" r="1" transform="translate(1001 552)"/><rect class="d" width="96" height="54" transform="translate(891 447)"/><rect class="e" width="93" height="3" rx="1.5" transform="translate(891 509)"/><rect class="e" width="58" height="3" rx="1.5" transform="translate(891 516)"/><rect class="f" width="96" height="2" rx="1" transform="translate(891 526)"/><rect class="f" width="82" height="2" rx="1" transform="translate(891 532)"/><rect class="f" width="92" height="2" rx="1" transform="translate(891 538)"/><rect class="f" width="78" height="2" rx="1" transform="translate(891 544)"/><rect class="f" width="87" height="2" rx="1" transform="translate(891 550)"/><rect class="f" width="96" height="2" rx="1" transform="translate(891 556)"/><rect class="f" width="37" height="2" rx="1" transform="translate(891 562)"/></svg>