<svg xmlns="http://www.w3.org/2000/svg" xmlns:xlink="http://www.w3.org/1999/xlink" viewBox="0 0 255 142"><defs><style>.a{fill:#a25656;}.b{fill:#e3e3e4;}.c{fill:#fff;}.d,.f{fill:#727476;}.e{clip-path:url(#a);}.f{font-size:9px;font-family:SegoeUI-Semibold, Segoe UI;font-weight:600;}</style><clipPath id="a"><rect class="a" width="19.754" height="11" transform="translate(0 35)"/></clipPath></defs><g transform="translate(-1213 20)"><path class="b" d="M0,0H255V142H0Z" transform="translate(1213 -20)"/><path class="c" d="M0,0H255V52H0Z" transform="translate(1213 70)"/><g transform="translate(239 -794)"><rect class="d" width="15" height="2" rx="1" transform="translate(1073 889)"/><rect class="d" width="15" height="2" rx="1" transform="translate(1094 889)"/><rect class="d" width="15" height="2" rx="1" transform="translate(1115 889)"/></g><g class="e" transform="translate(1397 56)"><g transform="translate(4.377 35)"><path class="d" d="M11,10.313a.688.688,0,0,1-.687.688H.688A.688.688,0,0,1,0,10.313V.688A.688.688,0,0,1,.688,0h9.625A.688.688,0,0,1,11,.688Z"/><path class="c" d="M60.781,31.469V27.344h1.375l.344-1.719H60.781v-.687a.912.912,0,0,1,1.031-1.031H62.5V22.188H61.125a2.129,2.129,0,0,0-2.062,2.406v1.031H57.688v1.719h1.375v4.125Z" transform="translate(-53.219 -20.469)"/></g></g><path class="d" d="M13.536,4.3a5.512,5.512,0,0,1-1.6.437A2.787,2.787,0,0,0,13.163,3.2a5.561,5.561,0,0,1-1.763.674A2.78,2.78,0,0,0,6.667,6.41,7.885,7.885,0,0,1,.943,3.51,2.781,2.781,0,0,0,1.8,7.216,2.768,2.768,0,0,1,.545,6.869c0,.011,0,.024,0,.035A2.779,2.779,0,0,0,2.771,9.627a2.79,2.79,0,0,1-1.253.048A2.78,2.78,0,0,0,4.112,11.6,5.57,5.57,0,0,1,.664,12.792,5.612,5.612,0,0,1,0,12.753,7.866,7.866,0,0,0,4.258,14a7.847,7.847,0,0,0,7.9-7.9c0-.12,0-.24-.008-.36A5.633,5.633,0,0,0,13.536,4.3Z" transform="translate(1419.999 88)"/><g transform="translate(1432.144 82.108)"><path class="d" d="M20.854,14.892v2.6a3.217,3.217,0,0,1-1.635,2.846,3.726,3.726,0,0,1-2.012.551c-1.577,0-3.151.007-4.728,0A3.666,3.666,0,0,1,9.693,19.68a3.1,3.1,0,0,1-.817-1.78,3.7,3.7,0,0,1-.019-.433q0-2.586,0-5.173a3.225,3.225,0,0,1,1.637-2.849,3.746,3.746,0,0,1,2.024-.551c1.572,0,3.144-.007,4.716,0a3.664,3.664,0,0,1,2.793,1.214,3.093,3.093,0,0,1,.808,1.77,7.3,7.3,0,0,1,.019.8C20.856,13.417,20.854,14.154,20.854,14.892Zm-11.1,0v2.66a2.219,2.219,0,0,0,.641,1.569,2.769,2.769,0,0,0,2.056.871c1.589.01,3.175,0,4.764,0a2.849,2.849,0,0,0,1.446-.368,2.359,2.359,0,0,0,1.3-2.16V12.232a2.194,2.194,0,0,0-.634-1.56,2.752,2.752,0,0,0-2.051-.878c-1.606-.012-3.209,0-4.815,0a2.819,2.819,0,0,0-1.41.365,2.363,2.363,0,0,0-1.3,2.162Z"/><path class="d" d="M143.812,138.562a2.781,2.781,0,1,1,1.989-.8A2.781,2.781,0,0,1,143.812,138.562Zm0-.9a1.887,1.887,0,1,0-1.918-1.891,1.908,1.908,0,0,0,1.918,1.891Z" transform="translate(-128.949 -121.107)"/><path class="d" d="M363,98.619a.593.593,0,1,1,.6.614.6.6,0,0,1-.6-.614Z" transform="translate(-345.58 -86.953)"/></g><text class="f" transform="translate(1227 99)"><tspan x="0" y="0">Copyright Text</tspan></text></g></svg>