<svg xmlns="http://www.w3.org/2000/svg" xmlns:xlink="http://www.w3.org/1999/xlink" viewBox="0 0 255 142"><defs><style>.a{fill:#a25656;}.b{fill:#e3e3e4;}.c{fill:#fff;}.d{clip-path:url(#a);}.e,.f{fill:#727476;}.f{font-size:9px;font-family:SegoeUI-Semibold, Segoe UI;font-weight:600;}</style><clipPath id="a"><rect class="a" width="19.754" height="10.946"/></clipPath></defs><g transform="translate(-948 20)"><path class="b" d="M0,0H255V142H0Z" transform="translate(948 -20)"/><path class="c" d="M0,0H255V52H0Z" transform="translate(948 70)"/><g class="d" transform="translate(959 90.452)"><g transform="translate(4.377)"><path class="e" d="M11,10.262a.686.686,0,0,1-.687.685H.688A.686.686,0,0,1,0,10.262V.685A.686.686,0,0,1,.688,0h9.625A.686.686,0,0,1,11,.685Z"/><path class="c" d="M60.781,31.423v-4.1h1.375l.344-1.711H60.781v-.684a.9.9,0,0,1,.258-.769.915.915,0,0,1,.773-.257H62.5V22.188H61.125a2.133,2.133,0,0,0-1.568.739,2.111,2.111,0,0,0-.494,1.655v1.026H57.688v1.711h1.375v4.1Z" transform="translate(-53.219 -20.477)"/></g></g><path class="e" d="M13.536,4.294a5.533,5.533,0,0,1-1.6.435A2.776,2.776,0,0,0,13.163,3.2a5.578,5.578,0,0,1-1.763.67,2.79,2.79,0,0,0-3.339-.544A2.762,2.762,0,0,0,6.667,6.393,7.9,7.9,0,0,1,.943,3.507,2.759,2.759,0,0,0,1.8,7.2,2.778,2.778,0,0,1,.545,6.85c0,.011,0,.024,0,.035a2.769,2.769,0,0,0,2.226,2.71,2.8,2.8,0,0,1-1.253.048,2.778,2.778,0,0,0,2.594,1.916A5.587,5.587,0,0,1,.664,12.744,5.64,5.64,0,0,1,0,12.7a7.894,7.894,0,0,0,4.258,1.241,7.867,7.867,0,0,0,5.6-2.287,7.789,7.789,0,0,0,2.3-5.574c0-.119,0-.239-.008-.358a5.618,5.618,0,0,0,1.386-1.433Z" transform="translate(981.999 87.452)"/><g transform="translate(1003.001 90.451)"><path class="e" d="M20.854,14.863V17.45a3.2,3.2,0,0,1-1.635,2.832,3.74,3.74,0,0,1-2.012.548c-1.577,0-3.151.007-4.728,0a3.674,3.674,0,0,1-2.786-1.2,3.078,3.078,0,0,1-.817-1.771,3.664,3.664,0,0,1-.019-.431V12.28a3.206,3.206,0,0,1,1.637-2.835A3.76,3.76,0,0,1,12.518,8.9c1.572,0,3.144-.007,4.716,0a3.672,3.672,0,0,1,2.793,1.2,3.071,3.071,0,0,1,.808,1.761,7.228,7.228,0,0,1,.019.8C20.856,13.4,20.854,14.128,20.854,14.863Zm-11.1,0V17.51a2.2,2.2,0,0,0,.641,1.561,2.776,2.776,0,0,0,2.056.867c1.589.01,3.175,0,4.764,0a2.86,2.86,0,0,0,1.446-.366,2.346,2.346,0,0,0,1.3-2.149V12.216a2.178,2.178,0,0,0-.634-1.552,2.758,2.758,0,0,0-2.051-.874c-1.606-.012-3.209,0-4.815,0a2.83,2.83,0,0,0-1.41.363,2.35,2.35,0,0,0-1.3,2.151Z" transform="translate(-8.857 -8.891)"/><path class="e" d="M143.812,138.535a2.774,2.774,0,1,1,1.986-.789,2.767,2.767,0,0,1-1.986.789Zm0-.891a1.878,1.878,0,1,0-1.918-1.882,1.9,1.9,0,0,0,1.918,1.882Z" transform="translate(-137.806 -130.013)"/><path class="e" d="M363,98.616a.593.593,0,1,1,.6.611.6.6,0,0,1-.6-.611Z" transform="translate(-354.437 -95.855)"/></g><text class="f" transform="translate(1129 100)"><tspan x="0" y="0">Copyright Text</tspan></text></g></svg>