<svg xmlns="http://www.w3.org/2000/svg" xmlns:xlink="http://www.w3.org/1999/xlink" viewBox="-37 25 255 142"><defs><style>.a{fill:none;}.b,.e{fill:#3a3b3c;}.c{fill:#fff;}.d{fill:#e3e3e4;}.e{font-size:13px;font-family:SegoeUI-Semibold, Segoe UI;font-weight:600;}.f{clip-path:url(#a);}.g{fill:#727476;}.h{clip-path:url(#b);}</style><clipPath id="a"><rect class="a" width="99" height="2"/></clipPath><clipPath id="b"><rect class="b" width="20.455" height="12.033"/></clipPath></defs><g transform="translate(-37 -10)"><g transform="translate(0 -1)"><rect class="c" width="255" height="142" transform="translate(0 36)"/><rect class="d" width="255" height="40" transform="translate(0 36)"/><text class="e" transform="translate(14 60)"><tspan x="0" y="0">Logo</tspan></text><g class="f" transform="translate(89 56)"><g transform="translate(-96 -51)"><rect class="g" width="15" height="2" rx="1" transform="translate(96 51)"/></g><g transform="translate(-75 -51)"><rect class="g" width="15" height="2" rx="1" transform="translate(96 51)"/></g><g transform="translate(-54 -51)"><rect class="g" width="15" height="2" rx="1" transform="translate(96 51)"/></g><g transform="translate(-33 -51)"><rect class="g" width="15" height="2" rx="1" transform="translate(96 51)"/></g><g transform="translate(-12 -51)"><rect class="g" width="15" height="2" rx="1" transform="translate(96 51)"/></g></g></g><g transform="translate(223.636 48.7)"><path d="M177.813,289.776a.273.273,0,0,0-.272-.272h-13.4a.273.273,0,0,0-.272.272h0a.273.273,0,0,0,.272.272h13.4a.273.273,0,0,0,.272-.272Z" transform="translate(-161.589 -286.828)"/><path d="M169.677,282.32h-13.4a.408.408,0,1,1,0-.816h13.4a.408.408,0,1,1,0,.816Zm-13.4-.544a.136.136,0,0,0,0,.272h13.4a.136.136,0,0,0,0-.272Z" transform="translate(-153.725 -278.964)"/><path d="M317.058,653.712a.273.273,0,0,0-.272-.272H306.9a.273.273,0,0,0-.272.272h0a.273.273,0,0,0,.272.272h9.889a.273.273,0,0,0,.272-.272Z" transform="translate(-301.913 -644.574)"/><path d="M308.921,646.256h-9.889a.408.408,0,1,1,0-.816h9.889a.408.408,0,1,1,0,.816Zm-9.889-.544a.136.136,0,0,0,0,.272h9.889a.136.136,0,0,0,0-.272Z" transform="translate(-294.049 -636.71)"/><path d="M343.67,757.584a.273.273,0,0,0-.272-.272h-9.013a.273.273,0,0,0-.272.272h0a.273.273,0,0,0,.272.272H343.4a.273.273,0,0,0,.272-.272Z" transform="translate(-328.934 -746.68)"/><path d="M335.534,750.128H326.52a.408.408,0,1,1,0-.816h9.014a.408.408,0,1,1,0,.816Zm-9.014-.544a.136.136,0,1,0,0,.272h9.014a.136.136,0,1,0,0-.272Z" transform="translate(-321.069 -738.816)"/><path d="M39.284,140.4a.273.273,0,0,0-.272-.272h-1.14a.273.273,0,0,0-.272.272h0a.273.273,0,0,0,.272.272h1.14a.273.273,0,0,0,.272-.272Z" transform="translate(-37.464 -139.992)"/><path d="M31.148,132.944h-1.14a.408.408,0,0,1,0-.816h1.14a.408.408,0,0,1,0,.816Zm-1.14-.544a.136.136,0,0,0,0,.272h1.14a.136.136,0,0,0,0-.272Z" transform="translate(-29.6 -132.128)"/><path d="M112.384,152.49a.272.272,0,0,0,.163-.348l-3.792-10.471a.272.272,0,1,0-.512.184l3.792,10.47A.274.274,0,0,0,112.384,152.49Z" transform="translate(-106.889 -141.332)"/><path d="M104.425,144.857a.411.411,0,0,1-.385-.269l-3.792-10.47a.409.409,0,0,1,.245-.522.415.415,0,0,1,.522.245l3.792,10.471a.408.408,0,0,1-.245.522A.409.409,0,0,1,104.425,144.857Zm-3.795-11.014a.128.128,0,0,0-.045.008.136.136,0,0,0-.082.174L104.3,144.5a.139.139,0,0,0,.175.082.131.131,0,0,0,.076-.07.134.134,0,0,0,0-.1l-3.791-10.471A.138.138,0,0,0,100.63,133.843Z" transform="translate(-99.022 -133.548)"/><path d="M888.589,298.714a.272.272,0,0,0,.315-.22l1.078-6.123a.272.272,0,1,0-.535-.094l-1.08,6.122a.273.273,0,0,0,.22.316h0Z" transform="translate(-873.759 -289.332)"/><path d="M880.768,291h0a.4.4,0,0,1-.072-.007.409.409,0,0,1-.332-.473l1.08-6.122a.408.408,0,1,1,.8.142l-1.079,6.123A.406.406,0,0,1,880.768,291Zm1.1-6.665a.142.142,0,0,0-.153.111l-1.08,6.122a.137.137,0,0,0,.111.158l.025,0a.136.136,0,0,0,.133-.112l1.079-6.123a.137.137,0,0,0-.11-.158Z" transform="translate(-865.89 -281.478)"/><path d="M424.193,823.552a.544.544,0,1,1-.544-.544A.544.544,0,0,1,424.193,823.552Z" transform="translate(-416.412 -811.259)"/><path d="M415.784,816.369a.68.68,0,1,1,.681-.68A.681.681,0,0,1,415.784,816.369Zm0-1.088a.408.408,0,1,0,.409.408A.408.408,0,0,0,415.784,815.28Z" transform="translate(-408.548 -803.395)"/><path d="M744.225,823.552a.544.544,0,1,1-.545-.544A.545.545,0,0,1,744.225,823.552Z" transform="translate(-731.001 -811.259)"/><path d="M735.816,816.369a.68.68,0,1,1,.682-.68A.681.681,0,0,1,735.816,816.369Zm0-1.088a.408.408,0,1,0,.409.408A.409.409,0,0,0,735.816,815.28Z" transform="translate(-723.138 -803.395)"/></g><g class="h" transform="translate(199.089 49.791)"><path d="M12.8,17.543a4.983,4.983,0,1,1,4.983-4.983A4.988,4.988,0,0,1,12.8,17.543Zm0-9.135a4.152,4.152,0,1,0,4.152,4.152A4.157,4.157,0,0,0,12.8,8.408Zm6.929,11.081a.416.416,0,0,1-.587,0l-3.3-3.3a.417.417,0,0,1,0-.588h0a.416.416,0,0,1,.587,0l3.3,3.3A.416.416,0,0,1,19.728,19.489Z" transform="translate(-3.605 -7.578)"/></g></g></svg>