<svg xmlns="http://www.w3.org/2000/svg" viewBox="-7885 2782 255 177"><defs><style>.a,.d{fill:#fff;}.b{fill:#b8b9ba;}.c{fill:#c7c7c8;}.d{stroke:#95989a;}.e{fill:#e3e3e4;}.f{fill:none;}.g{stroke:none;}</style></defs><rect class="a" width="255" height="177" transform="translate(-7885 2782)"/><rect class="b" width="48" height="3" rx="1.5" transform="translate(-7710 2892)"/><rect class="c" width="60" height="2" rx="1" transform="translate(-7705 2903)"/><rect class="c" width="32" height="2" rx="1" transform="translate(-7705 2908)"/><g class="d" transform="translate(-7710 2903)"><circle class="g" cx="1" cy="1" r="1"/><circle class="f" cx="1" cy="1" r="0.5"/></g><rect class="c" width="60" height="2" rx="1" transform="translate(-7705 2918)"/><rect class="c" width="32" height="2" rx="1" transform="translate(-7705 2923)"/><g class="d" transform="translate(-7710 2918)"><circle class="g" cx="1" cy="1" r="1"/><circle class="f" cx="1" cy="1" r="0.5"/></g><rect class="c" width="60" height="2" rx="1" transform="translate(-7705 2933)"/><rect class="c" width="32" height="2" rx="1" transform="translate(-7705 2938)"/><g class="d" transform="translate(-7710 2933)"><circle class="g" cx="1" cy="1" r="1"/><circle class="f" cx="1" cy="1" r="0.5"/></g><rect class="e" width="132" height="74" transform="translate(-7870 2797)"/><rect class="e" width="29" height="22" transform="translate(-7710 2797)"/><rect class="b" width="25" height="2" rx="1" transform="translate(-7677 2800)"/><path class="c" d="M.5,0h31a.5.5,0,0,1,0,1H.5a.5.5,0,1,1,0-1Z" transform="translate(-7677 2806)"/><path class="c" d="M.5,0h31a.5.5,0,0,1,0,1H.5a.5.5,0,1,1,0-1Z" transform="translate(-7677 2809)"/><path class="c" d="M.5,0h31a.5.5,0,0,1,0,1H.5a.5.5,0,1,1,0-1Z" transform="translate(-7677 2812)"/><path class="c" d="M.316,0H19.884c.174,0,.316.224.316.5s-.141.5-.316.5H.316C.141,1,0,.776,0,.5S.141,0,.316,0Z" transform="translate(-7677 2815)"/><rect class="e" width="29" height="22" transform="translate(-7710 2827)"/><rect class="b" width="25" height="2" rx="1" transform="translate(-7677 2830)"/><path class="c" d="M.5,0h31a.5.5,0,0,1,0,1H.5a.5.5,0,1,1,0-1Z" transform="translate(-7677 2836)"/><path class="c" d="M.5,0h31a.5.5,0,0,1,0,1H.5a.5.5,0,1,1,0-1Z" transform="translate(-7677 2839)"/><path class="c" d="M.5,0h31a.5.5,0,0,1,0,1H.5a.5.5,0,1,1,0-1Z" transform="translate(-7677 2842)"/><path class="c" d="M.316,0H19.884c.174,0,.316.224.316.5s-.141.5-.316.5H.316C.141,1,0,.776,0,.5S.141,0,.316,0Z" transform="translate(-7677 2845)"/><rect class="e" width="29" height="22" transform="translate(-7710 2857)"/><rect class="b" width="25" height="2" rx="1" transform="translate(-7677 2860)"/><path class="c" d="M.5,0h31a.5.5,0,0,1,0,1H.5a.5.5,0,1,1,0-1Z" transform="translate(-7677 2866)"/><path class="c" d="M.5,0h31a.5.5,0,0,1,0,1H.5a.5.5,0,1,1,0-1Z" transform="translate(-7677 2869)"/><path class="c" d="M.5,0h31a.5.5,0,0,1,0,1H.5a.5.5,0,1,1,0-1Z" transform="translate(-7677 2872)"/><path class="c" d="M.316,0H19.884c.174,0,.316.224.316.5s-.141.5-.316.5H.316C.141,1,0,.776,0,.5S.141,0,.316,0Z" transform="translate(-7677 2875)"/><rect class="b" width="114.559" height="4" rx="2" transform="translate(-7870 2879)"/><rect class="b" width="98.436" height="4" rx="2" transform="translate(-7870 2888)"/><g transform="translate(0 -17)"><rect class="c" width="111.631" height="2" rx="1" transform="translate(-7870 2917)"/><rect class="c" width="124.174" height="2" rx="1" transform="translate(-7870 2924)"/><rect class="c" width="82.783" height="2" rx="1" transform="translate(-7870 2931)"/><rect class="c" width="131.7" height="2" rx="1" transform="translate(-7870 2938)"/><rect class="c" width="111.631" height="2" rx="1" transform="translate(-7870 2945)"/><rect class="c" width="124.174" height="2" rx="1" transform="translate(-7870 2952)"/><rect class="c" width="82.783" height="2" rx="1" transform="translate(-7870 2959)"/></g><rect class="f" width="131.7" height="38" transform="translate(-7870 2910)"/><rect class="f" width="131.7" height="37.57" transform="translate(-7777 2908.269)"/></svg>