<svg xmlns="http://www.w3.org/2000/svg" viewBox="-193 -42 255 170"><defs><style>.a{fill:#e3e3e4;}.b{fill:#fff;}.c,.d,.e{fill:#727476;}.c{font-size:9px;font-family:SegoeUI-Semibold, Segoe UI;font-weight:600;}.e{opacity:0.5;}</style></defs><path class="a" d="M0,0H255V142H0Z" transform="translate(-193 -42)"/><path class="b" d="M0,0H255V80H0Z" transform="translate(-193 48)"/><text class="c" transform="translate(8 84.046)"><tspan x="0" y="0">Next Post</tspan></text><path class="d" d="M23.145,314.642a.321.321,0,0,1-.452,0l-3.681-3.681a.32.32,0,1,1,.452-.452l3.681,3.681A.322.322,0,0,1,23.145,314.642Zm0-.452a.322.322,0,0,1,0,.452l-3.681,3.681a.32.32,0,0,1-.452-.452l3.681-3.681A.321.321,0,0,1,23.145,314.19Zm-.112.225a.321.321,0,0,1-.32.32H3.2a.321.321,0,0,1-.32-.32h0a.321.321,0,0,1,.32-.32H22.713a.321.321,0,0,1,.32.32Z" transform="translate(24.12 -248.416)"/><path class="d" d="M23.145,314.642a.321.321,0,0,1-.452,0l-3.681-3.681a.32.32,0,1,1,.452-.452l3.681,3.681A.322.322,0,0,1,23.145,314.642Zm0-.452a.322.322,0,0,1,0,.452l-3.681,3.681a.32.32,0,0,1-.452-.452l3.681-3.681A.321.321,0,0,1,23.145,314.19Zm-.112.225a.321.321,0,0,1-.32.32H3.2a.321.321,0,0,1-.32-.32h0a.321.321,0,0,1,.32-.32H22.713a.321.321,0,0,1,.32.32Z" transform="translate(-154.762 380.416) rotate(180)"/><text class="c" transform="translate(-178 82.046)"><tspan x="0" y="0">Previous Post</tspan></text><rect class="e" width="96" height="5" rx="2.5" transform="translate(-178 96)"/><rect class="e" width="96" height="5" rx="2.5" transform="translate(-49 96)"/><rect class="e" width="57" height="5" rx="2.5" transform="translate(-178 108)"/><rect class="e" width="57" height="5" rx="2.5" transform="translate(-10 108)"/></svg>